<svg xmlns="http://www.w3.org/2000/svg" width="336" height="276" fill="none"><g filter="url(#a)"><rect width="320" height="260" x="8" fill="#fff" rx="5"/><g clip-path="url(#b)"><path fill="#00BAFC" d="M249.336 53.6a34.622 34.622 0 0 0-6.713-9.042l-93.125-.776 76.673-9.103a50.522 50.522 0 0 0-15.556-2.609c-7.381-5.039-16.868-8.063-27.216-8.063-9.285 0-17.87 2.44-24.869 6.58-5.949-2.592-12.729-4.06-19.934-4.06-20.691 0-37.932 12.114-41.8 28.181l152.54-1.108ZM252.61 67.075a29.498 29.498 0 0 0-2.902-12.717L88.311 68.68a31.38 31.38 0 0 0-3.782 8.073l49.98 6.299-51.12 4.591c1.539 18.189 19.982 32.55 42.513 32.55 11.34 0 21.645-3.639 29.281-9.573 7.66 6.047 18.063 9.765 29.526 9.765 17.008 0 31.688-8.187 38.524-20.023 13.714-3.681 24.368-12.92 28.014-24.48l-63.206-8.288h64.569v-.52ZM158.263 153.999c23.983 0 43.425-.868 43.425-1.938 0-1.07-19.442-1.938-43.425-1.938-23.983 0-43.425.868-43.425 1.938 0 1.07 19.442 1.938 43.425 1.938Z" opacity=".1"/><path fill="#C8CAD7" d="M184.037 148.652v1.171h-34.63v-.951a11.374 11.374 0 0 0 7.419-10.248 11.38 11.38 0 0 0-6.636-10.772h33.612a11.387 11.387 0 0 0-6.643 10.476 11.383 11.383 0 0 0 6.878 10.324Z"/><path fill="#000" d="M183.802 127.852a11.407 11.407 0 0 0-4 3.06 11.415 11.415 0 0 0-2.29 4.486h-21.031a11.391 11.391 0 0 0-6.29-7.546h33.611Z" opacity=".1"/><path fill="#C8CAD7" d="M109.746 121.886v6.574c0 3.63 2.657 6.572 5.935 6.572h101.895c3.278 0 5.934-2.942 5.934-6.572v-6.574H109.746Z"/><path fill="#000" d="M184.037 148.652v1.171h-34.63v-.951a11.378 11.378 0 0 0 2.67-1.422h29.837c.662.475 1.374.878 2.123 1.202Z" opacity=".1"/><path fill="#C8CAD7" d="M194.058 147.815h-54.673c-.785 0-1.422.637-1.422 1.423v.624c0 .786.637 1.423 1.422 1.423h54.673c.786 0 1.423-.637 1.423-1.423v-.624c0-.786-.637-1.423-1.423-1.423Z"/><path fill="#474157" d="M223.51 49.85a5.932 5.932 0 0 0-5.934-5.925h-101.89a5.933 5.933 0 0 0-5.94 5.925v73.315H223.51V49.85Z"/><path fill="#4C4C78" d="M220.413 52.498v62.996a2.925 2.925 0 0 1-1.803 2.7 2.922 2.922 0 0 1-1.118.222H115.777a2.915 2.915 0 0 1-2.067-.855 2.923 2.923 0 0 1-.855-2.067V52.498a2.921 2.921 0 0 1 2.922-2.922h101.707a2.93 2.93 0 0 1 2.071.853 2.917 2.917 0 0 1 .858 2.069Z"/><path fill="#fff" d="M166.63 48.116a1.37 1.37 0 1 0 0-2.74 1.37 1.37 0 0 0 0 2.74ZM166.63 132.112a3.378 3.378 0 1 0 0-6.757 3.378 3.378 0 0 0 0 6.757ZM135.583 51.038v67.378h-19.806a2.915 2.915 0 0 1-2.067-.855 2.923 2.923 0 0 1-.855-2.067V52.498l.107-.397.284-1.063h22.337Z"/><path fill="#4C4C78" d="M138.124 52.101v6.065h-25.269v-5.668l.107-.397h25.162Z"/><path fill="#C8CAD7" d="M220.413 52.498H112.855a2.918 2.918 0 0 1 1.804-2.698 2.918 2.918 0 0 1 1.118-.222h101.707a2.919 2.919 0 0 1 2.929 2.92Z"/><path fill="#EDEDF4" d="M115.777 51.769a.731.731 0 1 0 0-1.463.731.731 0 0 0 0 1.463ZM117.968 51.769a.731.731 0 1 0 0-1.463.731.731 0 0 0 0 1.463ZM120.159 51.769a.73.73 0 1 0-.001-1.461.73.73 0 0 0 .001 1.46Z"/><path fill="#00BAFC" d="M131.806 54.771h-15.174v1.397h15.174v-1.397Z"/><path fill="#00BAFC" d="M131.806 61.585h-15.174v1.397h15.174v-1.397ZM131.806 66.402h-15.174V67.8h15.174v-1.397ZM131.806 71.22h-15.174v1.397h15.174V71.22ZM131.806 76.036h-15.174v1.397h15.174v-1.397ZM131.806 80.853h-15.174v1.398h15.174v-1.398ZM131.806 85.671h-15.174v1.397h15.174v-1.397ZM131.806 90.487h-15.174v1.397h15.174v-1.397Z" opacity=".5"/><path fill="#DCE0ED" d="M215.247 59.91h-67.24v.224h67.24v-.225ZM215.247 65.125h-67.24v.225h67.24v-.225ZM215.247 70.342h-67.24v.225h67.24v-.225ZM215.247 75.558h-67.24v.225h67.24v-.225ZM215.247 80.774h-67.24V81h67.24v-.225Z" opacity=".5"/><path fill="#00BAFC" d="M215.248 80.997h-67.324V70.74l6.175 3.043 6.39.866 5.606-1.691 6.765-5.246 3.402-1.965 2.487-.479 2.38.127 3.914 1.934 5.32 3.389 4.175.537 3.311-1.14 7.016-5.748 3.582-1.278 3.748.58 3.053 1.762v15.567Z" opacity=".5"/><path fill="#00BAFC" d="M159.659 74.65c-6.062 0-11.666-3.707-11.735-3.755l.167-.249c.086.059 8.709 5.764 16.036 2.906 2.675-1.041 4.574-2.663 6.419-4.23 1.921-1.636 3.736-3.183 6.209-3.854 2.845-.768 5.937-.072 8.293 1.863 2.013 1.655 6.023 4.313 10.259 3.517 2.16-.404 3.981-1.982 5.908-3.652 3.69-3.205 7.518-6.513 14.12-1.763l-.175.243c-6.417-4.61-10.147-1.38-13.753 1.746-1.959 1.698-3.81 3.295-6.049 3.722-4.357.816-8.452-1.893-10.505-3.581-2.281-1.875-5.28-2.546-8.024-1.805-2.409.653-4.193 2.178-6.093 3.792-1.858 1.583-3.781 3.221-6.499 4.282a12.564 12.564 0 0 1-4.578.819Z"/><path fill="#00BAFC" d="M180.362 66.904a1.667 1.667 0 1 0 0-3.333 1.667 1.667 0 0 0 0 3.333Z"/><path fill="url(#c)" d="M138.592 101.458c-2.278-1.312-3.145-1.637-3.145-1.638l-.047-.033a1.906 1.906 0 0 1-.575-.727v-.15.016c.038-.695.53-1.326.999-1.877l1.198-1.41c.138-.142.243-.312.309-.5.024-.097.035-.198.033-.299v-.123c0-.35-.017-.7-.029-1.048-.012-.307-.09-.692-.397-.749-.158-.032-.368.024-.449-.112a.253.253 0 0 1-.021-.181v.013-.016c.059-.236.097-.477.114-.72a1.044 1.044 0 0 0-.049-.364c-.179-.508-.788-.716-1.327-.812-.539-.096-1.144-.178-1.483-.599a5.13 5.13 0 0 0-.299-.406 1.182 1.182 0 0 0-.553-.272 3.103 3.103 0 0 0-2.004.175c-.26.117-.522.272-.808.256-.286-.017-.551-.225-.845-.274-.473-.081-.927.268-1.16.68-.139.244-.213.52-.215.801v.046c-.006.302.105.595.309.818.204.213.508.358.599.636.034.114.027.237.057.35 0 .016.009.03.013.044l-.016.02a3.558 3.558 0 0 0-.749 2.19 3.635 3.635 0 0 0 2.546 3.444v.107a1.556 1.556 0 0 1-.494 1.206l-3.232 1.297s-1.947-.231-2.648 2.613a4.824 4.824 0 0 0-.119 1.442c.025.43-.035 1.184-.534 2.161-.798 1.563-.617 5.15 1.016 5.505 1.541.335 2.144.196 2.207.179v.063c-.025.674-.269 6.479-1.157 7.188-.248.194-.201.325 0 .414v.105c-.027.425-.165 2.041-.76 2.962-.683 1.061-.605 7.201-.605 7.201l-.47 3.623s.289 2.237 0 2.628c-.259.349-.599 8.627-.677 10.421h-.03a.876.876 0 0 0-.698.426c-.386.62-1.719 1.762-1.719 1.762-.289.412-1.361.806-1.927.992a1.175 1.175 0 0 0-.705.606.54.54 0 0 0-.051.427c.149.355 3.155.599 3.916.248.599-.278 2.971-.647 3.956-.79a.814.814 0 0 0 .704-.704.472.472 0 0 0-.09-.352c-.189-.234-.286-.872-.329-1.288a.87.87 0 0 0 .221-.132 9.433 9.433 0 0 1 .544-3.8c.725-1.917.943-5.469.762-7.779 0 0 2.212-9.519 3.954-10.407.027.033.871 1.117.979 4.474.108 3.41 1.34 5.647 1.34 5.647s-.543 5.79 0 7.957l-.714 3.413a1.267 1.267 0 0 1-.085-.078s.021.096.051.247l-.015.072.03.007c.08.427.2 1.171.149 1.609-.028.25-.097.59-.149.925-.075.526-.096 1.036.181 1.147.449.183 3.119.433 3.573-.15a.842.842 0 0 0 .132-.877.893.893 0 0 0-.132-.223s-.709-1.158-.508-1.974a.598.598 0 0 0-.085-.467c.104-1.292.311-2.574.621-3.832.45-1.709 1.411-5.456.707-7.921a4.272 4.272 0 0 0-.09-.284 10.66 10.66 0 0 1-.4-4.156 8.448 8.448 0 0 1 0-3.623c.432-1.987.736-3.934.736-3.934s.239-2.628.03-4.239l-.014-.103.114-.026s-.616-2.734-.834-4.474c-.051-.412-.118-.932-.192-1.487a4.01 4.01 0 0 0 .592-.15c1.958-.676 2.574-6.785 2.574-6.785v-1.938s.653-2.961-1.632-4.28Zm-14.591 47.172-.096-.051.096.051Z"/><path fill="#65617D" d="M137.41 136.711c.849 2.443-.15 6.407-.599 8.177a24.846 24.846 0 0 0-.599 3.893 8.224 8.224 0 0 1-3.115-.072l.749-3.645c-.53-2.159 0-7.929 0-7.929s-1.198-2.231-1.309-5.629c-.105-3.344-.928-4.425-.955-4.46-1.712.89-3.865 10.373-3.865 10.373.176 2.301-.036 5.841-.749 7.753a9.582 9.582 0 0 0-.532 3.787c-.247.209-.591.244-.963.185-1.01-.164-2.222-1.035-2.222-1.035s.389-10.333.672-10.725c.283-.393 0-2.62 0-2.62l.46-3.61s-.07-6.124.599-7.188c.581-.918.715-2.53.741-2.952v-.105l1.025-1.226s9.912-.749 10.655 0c.182.182.299.599.362 1.12.204 1.605-.03 4.224-.03 4.224s-.299 1.947-.722 3.928a8.618 8.618 0 0 0 0 3.611 10.796 10.796 0 0 0 .397 4.145Z"/><path fill="#A27772" d="M136.79 152.233c-.442.584-3.043.337-3.486.15-.271-.113-.25-.62-.177-1.144.047-.334.114-.674.141-.921.072-.638-.211-1.931-.211-1.931s.584.62.725 0a.672.672 0 0 1 .504-.479c.304-.092.63-.071.92.057.459.199 1.226.624 1.088 1.198-.194.813.496 1.966.496 1.966a.888.888 0 0 1 .129.223.85.85 0 0 1-.129.881Z"/><path fill="#000" d="M136.79 152.233c-.442.584-3.043.337-3.486.15-.271-.113-.25-.62-.177-1.144.279.13.749.239 1.546.166.185-.018.371-.024.557-.018.563.026 1.127.015 1.689-.033a.846.846 0 0 1-.129.879ZM127.717 137.419c.176 2.301-.036 5.841-.749 7.753a9.582 9.582 0 0 0-.532 3.787c-.247.208-.591.244-.963.184.214-1.497 1.123-7.926 1.707-13.007.664-5.788 3.77-9.77 3.77-9.77l.62.682c-1.7.888-3.853 10.371-3.853 10.371Z" opacity=".1"/><path fill="#FBBEBE" d="m135.728 100.216-.432 2.124-2.116 3.558-2.611-1.116s-3.549-3.716-1.319-4.247c.267-.057.52-.169.741-.329.438-.331.575-.81.578-1.28a3.917 3.917 0 0 0-.362-1.523l4.566-1.434a7.268 7.268 0 0 0-.328 1.85c-.034 1.243.427 1.857.806 2.149.141.114.303.198.477.248Z"/><path fill="#000" d="M134.773 95.97a7.268 7.268 0 0 0-.328 1.849 3.612 3.612 0 0 1-3.876 1.107 3.917 3.917 0 0 0-.362-1.523l4.566-1.434Z" opacity=".1"/><path fill="#FBBEBE" d="M135.296 95.385a3.609 3.609 0 0 1-4.315 3.542 3.61 3.61 0 0 1 .704-7.152 3.597 3.597 0 0 1 3.338 2.227c.181.439.274.909.273 1.383Z"/><path fill="#000" d="m135.728 100.216-.432 2.124-2.116 3.558-2.611-1.116s-3.549-3.716-1.319-4.247c.267-.057.52-.169.741-.329-.402 1.107 1.26 3.408 1.26 3.408.193.285.638.107.638.107 1.069-.162 3.041-3.241 3.362-3.753.141.114.303.198.477.248ZM137.773 120.806c-.629.15-4.107.912-5.425.72-1.451-.213-4.273-.353-4.273-.353s-1.797.096-2.349-.15v-.105l1.025-1.226s9.912-.749 10.655 0c.194.176.299.591.367 1.114Z" opacity=".1"/><path fill="#FF748E" d="M131.251 103.721s-1.868-2.587-1.164-3.594l-3.155 1.293s-1.899-.23-2.583 2.603c-.11.471-.15.956-.119 1.439.026.427-.033 1.179-.519 2.152-.779 1.558-.599 5.134.991 5.487 1.591.354 2.16.177 2.16.177s-.213 6.478-1.133 7.221c-.919.743 2.347.566 2.347.566s2.821.15 4.272.355c1.452.205 5.522-.749 5.522-.749s-.599-2.725-.815-4.46c-.215-1.734-.707-5.427-.707-5.427l3.611-4.89s.636-2.957-1.593-4.265c-2.23-1.309-3.07-1.633-3.07-1.633s-2.247 3.65-3.409 3.827c0 .002-.443.182-.636-.102Z"/><path fill="#000" d="M127.109 104.748s-.035 1.168.178 1.628c.213.459.99 3.008.99 3.008h-1.769s.956-1.026.885-1.521c-.07-.496-.284-3.115-.284-3.115Z" opacity=".1"/><path fill="#FBBEBE" d="M132.348 113.559s-3.908-.955-4.272-1.768c-.364-.813-1.369-2.637-1.369-2.637l.412-.556 1.902 1.498s2.266 1.797 3.327 1.982c1.062.186 0 1.481 0 1.481Z"/><path fill="#000" d="M132.348 113.559s-3.908-.955-4.272-1.768c-.364-.813-1.369-2.637-1.369-2.637l.412-.556 1.902 1.498s2.266 1.797 3.327 1.982c1.062.186 0 1.481 0 1.481Z" opacity=".05"/><path fill="#FBBEBE" d="M135.728 108.96v2.121h-.341a9.92 9.92 0 0 0-4.813 1.246l-.638.353-.172.096-1.098-2.471 1.027-.921h.053c.251.024 1.337.114 1.797-.04.46-.154.981-.62 2.267-.291.635.162 1.176.873 1.797.652l.121-.745Z"/><path fill="#000" d="m139.144 105.101.709.797v1.929s-.599 6.089-2.513 6.761c-1.914.673-5.324-.389-5.324-.389s-.882-2.336-.47-2.479c.412-.142 3.645-.994 3.645-.994s-.047-3.572.662-4.633c0 0-.46-3.328 1.132-3.398 1.592-.071 2.159 2.406 2.159 2.406Z" opacity=".1"/><path fill="#FF748E" d="m139.248 105.101.708.797v1.929s-.599 6.089-2.514 6.761c-1.916.673-5.323-.389-5.323-.389s-.882-2.336-.47-2.479c.412-.142 3.644-.994 3.644-.994s-.045-3.572.663-4.633c0 0-.461-3.328 1.132-3.398 1.593-.071 2.16 2.406 2.16 2.406Z"/><path fill="#000" d="M134.306 96.919c.031-.233.003-.47-.081-.689a.534.534 0 0 0-.56-.324c-.3.07-.435.465-.731.56-.25.079-.524-.098-.644-.332a1.703 1.703 0 0 1-.123-.77v-.888c0-.322-.01-.669-.209-.922-.248-.315-.827-.45-1.213-.439a1.03 1.03 0 0 0-.694.279.897.897 0 0 1-.729.26.634.634 0 0 1-.508-.44v-.012a3.614 3.614 0 0 1 4.001-1.254 3.61 3.61 0 0 1 1.369 6.046c.06-.356.101-.715.122-1.075Z" opacity=".1"/><path fill="#7C5C5C" d="M129.32 93.548a.634.634 0 0 1-.509-.44c-.028-.114-.021-.237-.055-.35-.082-.278-.379-.423-.578-.634-.398-.422-.373-1.119-.091-1.628.229-.41.67-.756 1.133-.677.286.051.533.255.824.273.29.018.534-.138.789-.255a2.971 2.971 0 0 1 1.956-.174c.201.04.387.134.539.272.103.129.199.264.287.404.33.42.921.503 1.447.599.526.096 1.122.3 1.294.81.115.335 0 .7-.062 1.048a.302.302 0 0 0 .014.217c.082.137.287.08.449.111.3.063.375.45.385.749.014.347.023.697.028 1.048.009.13-.001.261-.029.388a1.377 1.377 0 0 1-.3.487l-1.17 1.404c-.518.623-1.067 1.348-.964 2.152-.246.11-.536-.101-.617-.359-.081-.258-.016-.533.039-.797.094-.455.156-.917.184-1.382a1.39 1.39 0 0 0-.081-.69.529.529 0 0 0-.561-.324c-.3.07-.433.465-.73.559-.25.08-.524-.097-.643-.331a1.703 1.703 0 0 1-.123-.77v-.888c0-.322-.011-.67-.21-.922-.245-.315-.827-.45-1.213-.44a1.028 1.028 0 0 0-.693.28.905.905 0 0 1-.739.26Z"/><path fill="#000" d="m130.135 104.66 1.11 4.552s.873-.004-1.11-4.552ZM133.924 103.897s-1.453 2.378-.885 4.836l.269.019s-.482-1.138.616-4.855ZM134.843 117.35s1.782-.59 1.913.778c0 0-.337-.939-1.913-.778ZM129.693 109.491s-.353 2.478.283 3.469a7.773 7.773 0 0 1-3.114.424l-.213-3.893h3.044Z" opacity=".1"/><path fill="#000" d="m129.936 112.68-.172.096-1.098-2.471 1.027-.921h.053c-.017.12-.303 2.248.19 3.296Z" opacity=".1"/><path fill="#FF748E" d="M129.693 109.384s-.353 2.479.283 3.47a7.773 7.773 0 0 1-3.114.424l-1.239-3.894h4.07Z"/><path fill="#A27772" d="M126.631 150.726a.796.796 0 0 1-.687.701c-.96.15-3.277.509-3.861.788-.749.355-3.681.106-3.823-.247a.557.557 0 0 1 .051-.427 1.157 1.157 0 0 1 .687-.599c.554-.186 1.599-.577 1.881-.987 0 0 1.303-1.141 1.674-1.756a.853.853 0 0 1 .681-.424c.31-.015.655.142.797.82 0 0 1.698.969 2.158.12 0 0 .07 1.305.352 1.662a.47.47 0 0 1 .09.349Z"/><path fill="#000" d="M126.631 150.726a.796.796 0 0 1-.687.701c-.96.15-3.277.509-3.861.788-.749.355-3.681.106-3.823-.247a.557.557 0 0 1 .051-.427c.101-.215.267-.393.474-.509.48.317 1.543.629 3.882.263 2.231-.348 3.335-.69 3.874-.922a.476.476 0 0 1 .09.353Z" opacity=".1"/><g fill="#000" opacity=".1"><path d="M136.29 92.844a.054.054 0 0 0 0-.018 3.2 3.2 0 0 0 .109-.802 5.015 5.015 0 0 1-.109.644.377.377 0 0 0 0 .176ZM134.225 96.157c.055.127.085.265.087.404a1.219 1.219 0 0 0-.087-.563.532.532 0 0 0-.562-.325c-.299.07-.433.466-.729.56-.25.08-.524-.099-.644-.332a1.676 1.676 0 0 1-.123-.77v-.887c0-.322-.01-.669-.209-.922-.248-.316-.827-.45-1.215-.44a1.022 1.022 0 0 0-.692.28.895.895 0 0 1-.729.259.632.632 0 0 1-.509-.44c-.03-.114-.021-.236-.056-.35-.082-.278-.378-.422-.578-.633a1.166 1.166 0 0 1-.299-.749 1.216 1.216 0 0 0 .299.907c.2.212.496.357.578.636.035.112.026.235.056.349a.634.634 0 0 0 .509.44.898.898 0 0 0 .729-.26c.188-.175.434-.274.691-.278.387-.012.967.126 1.214.44.199.254.208.6.21.923v.887c-.021.263.021.527.123.77.119.234.393.411.643.332.3-.094.427-.488.73-.56a.535.535 0 0 1 .563.322ZM137.134 95.182a1.372 1.372 0 0 1-.299.488c-.391.467-.781.935-1.17 1.403-.491.592-1.012 1.276-.974 2.03.035-.691.518-1.32.974-1.87l1.17-1.404c.132-.14.234-.306.299-.487a1.34 1.34 0 0 0 .03-.39c0 .078-.01.155-.03.23ZM134.083 98.867a.772.772 0 0 1-.036-.19.935.935 0 0 0 .036.349c.079.258.371.469.616.36 0-.053-.01-.105-.011-.15-.243.097-.532-.117-.605-.369Z" opacity=".1"/></g><path fill="#000" d="M122.326 148.515s.369.65 1.711.076l-1.711-.076ZM133.654 148.67s1.158 1.362 2.615.45l-2.615-.45ZM137.021 132.569s-.818.511-.845.803c-.027.292.422-.213.422-.213l.423-.59ZM137.343 136.483a1.7 1.7 0 0 1-1.007.393c-.611.027-.56.823-.16.584.4-.24 1.167-.977 1.167-.977ZM137.498 136.994s-.392 1.926-.711 1.554l.711-1.554Z" opacity=".1"/><g fill="#DCE0ED" opacity=".5"><path d="M163.832 92.684h-9.883v2.097h9.883v-2.097ZM186.527 92.684h-9.883v2.097h9.883v-2.097ZM209.222 92.684h-9.883v2.097h9.883v-2.097Z" opacity=".5"/></g><path fill="#00BAFC" d="M226.063 144.676c2.228 0 4.033-.305 4.033-.681 0-.376-1.805-.681-4.033-.681-2.227 0-4.032.305-4.032.681 0 .376 1.805.681 4.032.681ZM100.644 153.28c2.228 0 4.033-.305 4.033-.682 0-.376-1.805-.681-4.033-.681-2.227 0-4.032.305-4.032.681 0 .377 1.805.682 4.032.682Z" opacity=".1"/><path fill="#00BAFC" d="M217.237 152.315c3.326 0 6.022-.456 6.022-1.018s-2.696-1.018-6.022-1.018-6.021.456-6.021 1.018 2.695 1.018 6.021 1.018Z"/><path fill="#00BAFC" d="M219.726 149.633c.275-.224.475-.526.574-.867.074-.344-.072-.756-.4-.882-.369-.141-.763.114-1.062.373-.3.259-.64.551-1.03.497a1.572 1.572 0 0 0 .485-1.469.614.614 0 0 0-.135-.299c-.205-.219-.575-.126-.821.046-.778.548-.995 1.605-1 2.558-.078-.343-.012-.701-.013-1.049-.002-.347-.099-.748-.396-.933a1.2 1.2 0 0 0-.599-.14c-.35-.014-.741.021-.979.277-.3.319-.22.852.037 1.198.258.346.653.569 1.014.811.29.174.538.41.725.691.021.04.039.081.052.124h2.196a6.17 6.17 0 0 0 1.352-.936ZM100.829 142.49s.823 1.077-.379 2.696c-1.203 1.618-2.194 2.995-1.797 4.008 0 0 1.815-3.017 3.294-3.059 1.48-.042.506-1.83-1.118-3.645Z"/><path fill="#000" d="M100.829 142.49c.072.104.129.218.169.338 1.44 1.693 2.207 3.273.822 3.312-1.289.037-2.836 2.343-3.208 2.926.012.045.027.089.044.133 0 0 1.815-3.018 3.294-3.059 1.48-.042.503-1.835-1.121-3.65Z" opacity=".1"/><path fill="#FFD037" d="M102.358 143.862c0 .379-.042.686-.095.686-.052 0-.094-.3-.094-.686 0-.387.052-.201.105-.201.052 0 .084-.178.084.201Z"/><path fill="#FFD037" d="M102.883 144.314c-.332.181-.623.291-.647.244-.024-.046.223-.231.556-.412.332-.181.202-.049.226 0 .024.05.198-.013-.135.168Z"/><path fill="#00BAFC" d="M96.484 142.49s-.823 1.077.38 2.696c1.202 1.618 2.193 2.995 1.796 4.008 0 0-1.813-3.017-3.294-3.059-1.481-.042-.507-1.83 1.118-3.645Z"/><path fill="#000" d="M96.484 142.49a1.344 1.344 0 0 0-.169.338c-1.44 1.693-2.207 3.273-.822 3.312 1.29.037 2.836 2.343 3.208 2.926-.012.045-.027.09-.045.133 0 0-1.814-3.018-3.295-3.059-1.48-.042-.502-1.835 1.123-3.65Z" opacity=".1"/><path fill="#FFD037" d="M94.954 143.862c0 .379.043.686.096.686.052 0 .094-.3.094-.686 0-.387-.052-.201-.105-.201-.052 0-.085-.178-.085.201Z"/><path fill="#FFD037" d="M94.43 144.314c.332.181.621.291.647.244.025-.046-.224-.231-.556-.412-.332-.181-.202-.049-.228 0-.025.05-.196-.013.137.168Z"/><path fill="#A8A8A8" d="M95.22 149.058s2.3-.072 2.995-.564c.695-.493 3.539-1.085 3.711-.292.172.792 3.457 3.937.86 3.958-2.597.02-6.034-.405-6.725-.826-.692-.42-.84-2.276-.84-2.276Z"/><path fill="#000" d="M102.826 151.884c-2.596.021-6.035-.404-6.727-.825-.525-.322-.736-1.474-.805-2.004h-.078s.15 1.854.839 2.276c.688.423 4.128.846 6.725.825.749 0 1.008-.272.994-.667-.105.242-.391.39-.948.395Z" opacity=".2"/><path fill="#00BAFC" d="M153.249 107.325c0-3.061 2.491-5.412 5.553-5.412h.044v-1.393h-.044c-3.83 0-6.945 2.976-6.945 6.805 0 .991.212 1.97.622 2.872a6.95 6.95 0 0 0 1.757 2.355l.987-.987a5.539 5.539 0 0 1-1.974-4.24Z"/><path fill="#00BAFC" d="M158.985 100.522v1.393a5.545 5.545 0 0 1 4.529 2.394 5.547 5.547 0 0 1-.836 7.268 5.55 5.55 0 0 1-7.316.127l-.989.987a6.935 6.935 0 0 0 9.183-.039 6.94 6.94 0 0 0-1.362-11.321 6.936 6.936 0 0 0-3.212-.809h.003ZM204.51 101.843c3.061 0 5.412 2.49 5.412 5.553v.043h1.392v-.043c0-3.83-2.975-6.946-6.804-6.946a6.925 6.925 0 0 0-5.227 2.38l.987.987a5.535 5.535 0 0 1 4.24-1.974Z" opacity=".5"/><path fill="#00BAFC" d="M211.313 107.578h-1.393a5.552 5.552 0 0 1-4.858 5.471 5.551 5.551 0 0 1-4.931-9.093l-.983-.987a6.949 6.949 0 0 0-1.508 6.254 6.948 6.948 0 0 0 4.276 4.808 6.936 6.936 0 0 0 3.288.4 6.936 6.936 0 0 0 6.113-6.853h-.004Z"/><path fill="#00BAFC" d="m184.323 100.929-.277 1.387c2.038.822 3.341 2.82 3.341 5.148a5.557 5.557 0 0 1-2.909 4.884 5.551 5.551 0 1 1-4.868-9.968l-.617-1.25a6.942 6.942 0 1 0 9.793 6.334c0-3.005-1.779-5.569-4.463-6.535Z" opacity=".5"/><path fill="#00BAFC" d="M182.015 101.832c.665 0 1.324.137 1.934.402l.277-1.386a6.123 6.123 0 0 0-2.211-.408c-.981 0-1.951.208-2.845.612l.623 1.247a5.518 5.518 0 0 1 2.222-.467Z"/></g><path fill="#000" d="M112.043 179.037c-1.139 0-2.022.43-2.647 1.289-.625.853-.937 2.044-.937 3.574 0 3.184 1.195 4.776 3.584 4.776 1.003 0 2.217-.251 3.643-.752v2.539c-1.172.488-2.481.732-3.926.732-2.077 0-3.666-.628-4.766-1.884-1.1-1.263-1.65-3.073-1.65-5.43 0-1.485.27-2.783.81-3.897.541-1.119 1.315-1.976 2.325-2.568 1.015-.599 2.203-.898 3.564-.898 1.387 0 2.78.335 4.18 1.005l-.977 2.461a16.234 16.234 0 0 0-1.611-.664 4.83 4.83 0 0 0-1.592-.283Zm9.717 4.024h.976c.957 0 1.664-.16 2.119-.479.456-.319.684-.82.684-1.504 0-.677-.234-1.159-.703-1.445-.462-.287-1.182-.43-2.158-.43h-.918v3.858Zm0 2.46V191h-3.028v-14.277h4.161c1.94 0 3.375.354 4.306 1.064.931.703 1.397 1.774 1.397 3.213 0 .84-.231 1.589-.694 2.246-.462.651-1.116 1.162-1.963 1.533 2.149 3.21 3.549 5.283 4.2 6.221h-3.36l-3.408-5.479h-1.611ZM137.98 191l-3.437-11.201h-.088c.124 2.278.186 3.799.186 4.56V191h-2.705v-14.277h4.121l3.379 10.918h.058l3.584-10.918h4.121V191h-2.822v-6.758c0-.319.003-.687.01-1.103.013-.417.058-1.524.136-3.321h-.087L140.754 191h-2.774Zm22.383-2.178c.521 0 1.146-.114 1.875-.342v2.217c-.742.332-1.653.498-2.734.498-1.192 0-2.061-.299-2.608-.898-.54-.606-.81-1.511-.81-2.715v-5.264h-1.426v-1.259l1.641-.997.859-2.304h1.904v2.324h3.057v2.236h-3.057v5.264c0 .423.118.736.352.938.241.201.557.302.947.302Zm3.965-11.562c0-.97.54-1.455 1.621-1.455s1.621.485 1.621 1.455c0 .462-.136.823-.41 1.084-.267.254-.67.381-1.211.381-1.081 0-1.621-.489-1.621-1.465Zm3.106 13.74h-2.979v-10.918h2.979V191Zm10.732 0h-8.623v-1.758l5.059-6.885h-4.756v-2.275h8.144v1.934l-4.922 6.709h5.098V191Zm2.041-13.74c0-.97.54-1.455 1.621-1.455s1.621.485 1.621 1.455c0 .462-.137.823-.41 1.084-.267.254-.671.381-1.211.381-1.081 0-1.621-.489-1.621-1.465Zm3.105 13.74h-2.978v-10.918h2.978V191Zm12.911 0h-2.979v-6.377c0-.788-.133-1.377-.4-1.768-.261-.397-.674-.595-1.24-.595-.762 0-1.316.28-1.661.84-.345.56-.517 1.481-.517 2.763V191h-2.979v-10.918h2.276l.4 1.397h.166a2.99 2.99 0 0 1 1.27-1.172c.553-.287 1.188-.43 1.904-.43 1.634 0 2.741.534 3.32 1.602h.264c.293-.508.723-.902 1.289-1.182.573-.28 1.217-.42 1.934-.42 1.237 0 2.171.319 2.802.957.638.631.957 1.647.957 3.047V191h-2.988v-6.377c0-.788-.133-1.377-.4-1.768-.261-.397-.674-.595-1.241-.595-.729 0-1.276.26-1.64.781-.358.521-.537 1.348-.537 2.48V191Zm12.851 0h-2.978v-15.195h2.978V191Zm10.069 0-.577-1.484h-.078c-.501.631-1.019 1.071-1.552 1.318-.528.241-1.218.361-2.071.361-1.048 0-1.875-.299-2.48-.898-.599-.599-.899-1.452-.899-2.559 0-1.159.404-2.011 1.211-2.558.814-.554 2.038-.86 3.672-.918l1.895-.059v-.478c0-1.107-.567-1.661-1.7-1.661-.872 0-1.897.264-3.076.791l-.986-2.011c1.256-.658 2.65-.987 4.18-.987 1.464 0 2.588.319 3.369.957.781.638 1.172 1.609 1.172 2.911V191h-2.08Zm-.879-5.059-1.153.039c-.866.027-1.51.183-1.933.469-.423.287-.635.723-.635 1.309 0 .84.482 1.26 1.445 1.26.69 0 1.241-.199 1.651-.596.416-.397.625-.925.625-1.582v-.899Zm12.129-6.064c.403 0 .739.029 1.005.088l-.224 2.793a3.417 3.417 0 0 0-.879-.098c-.951 0-1.693.244-2.227.733-.527.488-.791 1.171-.791 2.05V191h-2.978v-10.918h2.256l.439 1.836h.147a4.073 4.073 0 0 1 1.367-1.475 3.388 3.388 0 0 1 1.885-.566ZM123.422 230h-1.297v-12.156h1.297V230Zm10.14-4.289c0 1.396-.351 2.487-1.054 3.273-.703.782-1.675 1.172-2.914 1.172-.766 0-1.446-.179-2.039-.539-.594-.359-1.052-.875-1.375-1.547-.323-.672-.485-1.458-.485-2.359 0-1.396.349-2.482 1.047-3.258.698-.781 1.667-1.172 2.906-1.172 1.198 0 2.149.399 2.852 1.196.708.796 1.062 1.875 1.062 3.234Zm-6.523 0c0 1.094.219 1.927.656 2.5.438.573 1.081.859 1.93.859s1.492-.284 1.93-.851c.442-.573.664-1.409.664-2.508 0-1.089-.222-1.914-.664-2.477-.438-.567-1.086-.851-1.946-.851-.849 0-1.489.278-1.921.836-.433.557-.649 1.388-.649 2.492Zm12.711-4.43c.38 0 .721.031 1.023.094l-.179 1.203a4.426 4.426 0 0 0-.938-.117c-.692 0-1.286.281-1.781.844-.49.562-.734 1.263-.734 2.101V230h-1.297v-8.562h1.07l.148 1.585h.063c.318-.557.701-.987 1.148-1.289a2.588 2.588 0 0 1 1.477-.453Zm6.242 8.875c-1.265 0-2.265-.385-3-1.156-.729-.771-1.094-1.841-1.094-3.211 0-1.38.339-2.477 1.016-3.289.682-.812 1.596-1.219 2.742-1.219 1.073 0 1.922.354 2.547 1.063.625.703.938 1.633.938 2.789v.82h-5.899c.026 1.005.279 1.768.758 2.289.484.521 1.164.781 2.039.781.922 0 1.833-.192 2.734-.578v1.157a6.66 6.66 0 0 1-1.304.421c-.407.089-.899.133-1.477.133Zm-.351-7.789c-.688 0-1.237.224-1.649.672-.406.448-.646 1.068-.719 1.859h4.477c0-.817-.182-1.442-.547-1.875-.364-.437-.885-.656-1.562-.656ZM162.273 230v-5.57c0-.683-.145-1.193-.437-1.532-.292-.343-.745-.515-1.359-.515-.808 0-1.404.232-1.789.695-.386.464-.579 1.177-.579 2.141V230h-1.297v-5.57c0-.683-.145-1.193-.437-1.532-.292-.343-.747-.515-1.367-.515-.813 0-1.409.245-1.789.734-.375.485-.563 1.281-.563 2.391V230h-1.297v-8.562h1.055l.211 1.171h.063a2.548 2.548 0 0 1 1.031-.976 3.179 3.179 0 0 1 1.5-.352c1.338 0 2.213.485 2.625 1.453h.062a2.723 2.723 0 0 1 1.11-1.062c.484-.261 1.036-.391 1.656-.391.969 0 1.693.25 2.172.75.484.495.726 1.289.726 2.383V230h-1.297Zm9.43 0h-1.297v-8.562h1.297V230Zm-1.406-10.883c0-.297.073-.513.219-.648a.753.753 0 0 1 .546-.211c.209 0 .389.07.54.211.151.14.226.357.226.648 0 .292-.075.511-.226.656a.764.764 0 0 1-.54.211.753.753 0 0 1-.546-.211c-.146-.145-.219-.364-.219-.656Zm8.141 11.039a3.779 3.779 0 0 1-1.532-.304 2.908 2.908 0 0 1-1.156-.954h-.094c.063.5.094.974.094 1.422v3.524h-1.297v-12.406h1.055l.18 1.171h.062c.333-.468.721-.807 1.164-1.015.443-.209.951-.313 1.524-.313 1.135 0 2.01.388 2.624 1.164.62.776.93 1.865.93 3.266 0 1.406-.315 2.5-.945 3.281-.625.776-1.495 1.164-2.609 1.164Zm-.188-7.773c-.875 0-1.508.242-1.898.726-.391.485-.592 1.256-.602 2.313v.289c0 1.203.201 2.065.602 2.586.401.515 1.044.773 1.929.773.74 0 1.318-.299 1.735-.898.422-.599.632-1.425.632-2.477 0-1.067-.21-1.885-.632-2.453-.417-.573-1.006-.859-1.766-.859Zm11.539 5.281c0 .797-.297 1.412-.891 1.844-.593.432-1.427.648-2.5.648-1.135 0-2.02-.179-2.656-.539v-1.203c.412.208.852.372 1.32.492.474.12.93.18 1.368.18.677 0 1.198-.107 1.562-.32.365-.219.547-.55.547-.993 0-.333-.146-.617-.437-.851-.287-.24-.849-.521-1.688-.844-.797-.297-1.365-.555-1.703-.773a2.42 2.42 0 0 1-.75-.758c-.162-.281-.242-.617-.242-1.008 0-.698.284-1.247.851-1.648.568-.407 1.347-.61 2.336-.61.922 0 1.823.188 2.703.563l-.461 1.054c-.859-.354-1.638-.531-2.336-.531-.614 0-1.078.097-1.39.289-.313.193-.469.459-.469.797 0 .229.057.425.172.586.12.162.31.315.57.461.261.146.761.357 1.5.633 1.016.37 1.701.742 2.055 1.117.359.375.539.846.539 1.414Zm3.336-6.226v5.554c0 .698.159 1.219.477 1.563.317.343.815.515 1.492.515.896 0 1.549-.244 1.961-.734.416-.49.625-1.289.625-2.398v-4.5h1.297V230h-1.071l-.187-1.148h-.071a2.58 2.58 0 0 1-1.109.968c-.469.224-1.005.336-1.609.336-1.042 0-1.823-.247-2.344-.742-.516-.495-.774-1.286-.774-2.375v-5.601h1.313ZM212.648 230v-5.57c0-.683-.145-1.193-.437-1.532-.292-.343-.745-.515-1.359-.515-.808 0-1.404.232-1.79.695-.385.464-.578 1.177-.578 2.141V230h-1.296v-5.57c0-.683-.146-1.193-.438-1.532-.292-.343-.747-.515-1.367-.515-.813 0-1.409.245-1.789.734-.375.485-.563 1.281-.563 2.391V230h-1.297v-8.562h1.055l.211 1.171h.062a2.557 2.557 0 0 1 1.032-.976 3.179 3.179 0 0 1 1.5-.352c1.338 0 2.213.485 2.625 1.453h.062a2.723 2.723 0 0 1 1.11-1.062c.484-.261 1.036-.391 1.656-.391.969 0 1.693.25 2.172.75.484.495.726 1.289.726 2.383V230h-1.297Z"/></g><defs><linearGradient id="c" x1="129.139" x2="129.139" y1="152.598" y2="89.355" gradientUnits="userSpaceOnUse"><stop stop-color="gray" stop-opacity=".25"/><stop offset=".54" stop-color="gray" stop-opacity=".12"/><stop offset="1" stop-color="gray" stop-opacity=".1"/></linearGradient><clipPath id="b"><path fill="#fff" d="M83.39 24h169.22v130H83.39z"/></clipPath><filter id="a" width="336" height="276" x="0" y="0" color-interpolation-filters="sRGB" filterUnits="userSpaceOnUse"><feFlood flood-opacity="0" result="BackgroundImageFix"/><feColorMatrix in="SourceAlpha" result="hardAlpha" values="0 0 0 0 0 0 0 0 0 0 0 0 0 0 0 0 0 0 127 0"/><feOffset dy="8"/><feGaussianBlur stdDeviation="4"/><feColorMatrix values="0 0 0 0 0 0 0 0 0 0 0 0 0 0 0 0 0 0 0.1 0"/><feBlend in2="BackgroundImageFix" result="effect1_dropShadow_13_1656"/><feBlend in="SourceGraphic" in2="effect1_dropShadow_13_1656" result="shape"/></filter></defs></svg>