<svg xmlns="http://www.w3.org/2000/svg" width="336" height="276" fill="none"><g filter="url(#a)"><rect width="320" height="260" x="8" fill="#fff" rx="5"/><g clip-path="url(#b)"><path fill="#00BAFC" d="M135.665 28.904c4.831-4.299 12.412-5.18 19.311-4.838 21.673 1.076 41.237 11.54 58.159 23.377 6.127 4.283 12.159 8.901 16.135 14.802 8.101 12.01 5.694 28.65-5.562 38.544-3.83 3.368-8.473 5.952-13.24 8.235-8.475 4.069-17.619 7.335-27.237 8.267-6.859.661-13.803.124-20.622-.8-19.051-2.588-37.752-8.302-53.426-18.068-6.874-4.289-13.355-9.617-16.189-16.555-2.834-6.937-1.02-15.724 6-19.83 2.903-1.698 6.375-2.465 9.773-3.184 5.003-1.06 10.085-2.105 14.6-4.26 4.663-2.224 10.183-6.53 9.259-11.455-.989-5.294-1.784-9.937 3.039-14.235ZM219.152 142.215c9.995 0 18.097-.52 18.097-1.161s-8.102-1.16-18.097-1.16c-9.995 0-18.098.519-18.098 1.16 0 .641 8.103 1.161 18.098 1.161ZM172.113 134.448c9.995 0 18.097-.52 18.097-1.161s-8.102-1.161-18.097-1.161c-9.995 0-18.098.52-18.098 1.161s8.103 1.161 18.098 1.161ZM105.672 152.859c9.995 0 18.097-.519 18.097-1.16 0-.641-8.102-1.161-18.097-1.161-9.995 0-18.098.52-18.098 1.161s8.103 1.16 18.098 1.16ZM140.061 154c4.113 0 7.447-.214 7.447-.478s-3.334-.478-7.447-.478c-4.113 0-7.446.214-7.446.478s3.333.478 7.446.478ZM251.65 141.592c3.205 0 5.803-.167 5.803-.372 0-.206-2.598-.372-5.803-.372s-5.804.166-5.804.372c0 .205 2.599.372 5.804.372ZM198.387 133.783c2.718 0 4.921-.141 4.921-.316 0-.174-2.203-.316-4.921-.316-2.717 0-4.92.142-4.92.316 0 .175 2.203.316 4.92.316Z" opacity=".1"/><path fill="#00BAFC" d="M252.485 132.292s.777 1.017-.358 2.551c-1.134 1.534-2.073 2.829-1.694 3.784 0 0 1.714-2.848 3.108-2.888 1.394-.04.48-1.733-1.056-3.447Z"/><path fill="#000" d="M252.485 132.292c.069.098.125.205.165.319 1.361 1.599 2.085 3.09.777 3.128-1.219.035-2.68 2.214-3.031 2.764.012.042.025.084.042.124 0 0 1.714-2.848 3.108-2.888 1.394-.04.474-1.733-1.061-3.447Z" opacity=".1"/><path fill="#FFD037" d="M253.931 133.586c0 .359-.039.648-.089.648-.05 0-.089-.289-.089-.648 0-.358.049-.188.099-.188.049 0 .079-.169.079.188Z"/><path fill="#FFD037" d="M254.427 134.015c-.314.165-.587.274-.611.231-.025-.043.211-.218.525-.39.314-.172.19-.047.214 0 .023.046.186-.013-.128.159Z"/><path fill="#00BAFC" d="M248.383 132.292s-.777 1.017.358 2.551c1.136 1.534 2.072 2.829 1.693 3.784 0 0-1.712-2.848-3.108-2.888-1.395-.04-.478-1.733 1.057-3.447Z"/><path fill="#000" d="M248.383 132.292a1.242 1.242 0 0 0-.166.319c-1.36 1.599-2.086 3.09-.778 3.128 1.218.035 2.681 2.214 3.03 2.764a1.059 1.059 0 0 1-.041.124s-1.713-2.848-3.108-2.888c-1.396-.04-.472-1.733 1.063-3.447Z" opacity=".1"/><path fill="#FFD037" d="M246.938 133.586c0 .359.039.648.089.648.049 0 .091-.289.091-.648 0-.358-.051-.188-.101-.188-.05 0-.079-.169-.079.188Z"/><path fill="#FFD037" d="M246.442 134.015c.314.165.588.274.611.231.024-.043-.211-.218-.525-.39-.315-.172-.191-.047-.214 0-.023.046-.187-.013.128.159Z"/><path fill="#A8A8A8" d="M247.194 138.495s2.172-.066 2.827-.532c.655-.467 3.341-1.024 3.505-.276.164.747 3.264 3.718.812 3.738-2.452.02-5.699-.382-6.354-.779-.655-.397-.79-2.151-.79-2.151Z"/><path fill="#000" d="M254.373 141.165c-2.452.02-5.699-.382-6.352-.78-.496-.303-.697-1.391-.763-1.893h-.072s.137 1.752.79 2.149 3.9.799 6.354.779c.707 0 .952-.257.939-.63-.1.23-.369.37-.896.375Z" opacity=".2"/><path fill="#00BAFC" d="M199.26 125.834s.662.868-.307 2.181c-.969 1.312-1.772 2.42-1.448 3.238 0 0 1.464-2.437 2.658-2.48 1.194-.043.407-1.474-.903-2.939Z"/><path fill="#000" d="M199.26 125.834c.058.084.104.176.136.273 1.157 1.367 1.784 2.645.661 2.675-1.041.029-2.293 1.894-2.592 2.366.01.036.022.071.036.105 0 0 1.465-2.437 2.659-2.48 1.194-.043.41-1.474-.9-2.939Z" opacity=".1"/><path fill="#FFD037" d="M200.495 126.942c0 .305-.034.553-.076.553-.041 0-.077-.248-.077-.553 0-.306.043-.166.086-.166s.067-.14.067.166Z"/><path fill="#FFD037" d="M200.92 127.307c-.269.145-.496.235-.524.197-.028-.038.182-.185.45-.331.268-.145.165-.04.184 0 .018.04.158-.013-.11.134Z"/><path fill="#00BAFC" d="M195.749 125.834s-.662.868.306 2.181c.967 1.312 1.774 2.42 1.45 3.238 0 0-1.467-2.437-2.661-2.48-1.193-.043-.408-1.474.905-2.939Z"/><path fill="#000" d="M195.749 125.834a1.078 1.078 0 0 0-.138.273c-1.157 1.367-1.783 2.645-.661 2.675 1.043.029 2.293 1.894 2.593 2.366-.01.034-.022.071-.035.105 0 0-1.467-2.437-2.66-2.48-1.194-.043-.412-1.474.901-2.939Z" opacity=".1"/><path fill="#FFD037" d="M194.512 126.942c0 .305.035.553.078.553s.076-.248.076-.553c0-.306-.043-.166-.086-.166s-.068-.14-.068.166Z"/><path fill="#FFD037" d="M194.089 127.307c.268.145.496.235.522.197.027-.038-.18-.185-.45-.331-.269-.145-.165-.04-.183 0-.018.04-.159-.013.111.134Z"/><path fill="#A8A8A8" d="M194.724 131.141s1.858-.058 2.419-.456c.56-.399 2.86-.877 2.999-.237.139.64 2.792 3.183.694 3.199-2.098.017-4.876-.33-5.434-.661-.559-.331-.678-1.845-.678-1.845Z"/><path fill="#000" d="M200.874 133.424c-2.1.018-4.877-.33-5.436-.661-.425-.26-.595-1.19-.651-1.62h-.063s.117 1.498.678 1.838c.56.341 3.336.685 5.434.662.605 0 .815-.22.804-.539-.078.205-.316.317-.766.32Z" opacity=".2"/><g opacity=".8"><path fill="#E74D89" d="M102.978 126.799a12.368 12.368 0 0 1 11.419 7.635 12.36 12.36 0 0 1-2.682 13.472 12.36 12.36 0 0 1-13.472 2.68 12.365 12.365 0 0 1 4.735-23.787Z" opacity=".8"/><path fill="#B2215A" d="M102.978 152.406a13.245 13.245 0 1 1 13.26-13.25 13.264 13.264 0 0 1-3.887 9.37 13.264 13.264 0 0 1-9.373 3.88Zm11.179-11.436a16.69 16.69 0 0 0-7.055-.496 48.27 48.27 0 0 1 2.204 8.068 11.241 11.241 0 0 0 4.851-7.572Zm-6.754 8.617a47.211 47.211 0 0 0-2.414-8.576.21.21 0 0 1-.073.02c-6.392 2.227-8.681 6.652-8.888 7.065a11.277 11.277 0 0 0 6.944 2.382 11.03 11.03 0 0 0 4.424-.891h.007Zm-12.835-2.848c.258-.435 3.366-5.572 9.209-7.469.144-.051.299-.092.445-.133-.28-.644-.59-1.285-.923-1.917-5.654 1.688-11.145 1.616-11.643 1.606 0 .114-.01.228-.01.34a11.31 11.31 0 0 0 2.922 7.573Zm-2.674-9.882a41.888 41.888 0 0 0 10.468-1.378 72.647 72.647 0 0 0-4.196-6.537 11.354 11.354 0 0 0-6.272 7.915Zm8.433-8.68a59.518 59.518 0 0 1 4.227 6.613c4.029-1.511 5.727-3.791 5.936-4.08a11.285 11.285 0 0 0-7.512-2.849c-.893.006-1.783.114-2.651.322v-.006Zm11.416 3.842c-.238.322-2.135 2.756-6.319 4.464.258.539.517 1.088.755 1.637.083.197.166.393.25.58 3.77-.478 7.509.289 7.883.362a11.28 11.28 0 0 0-2.569-7.045v.002Z" opacity=".8"/></g><path fill="url(#c)" d="M133.64 101.426c-.3-.376-.64-2.957-.64-2.957l-1.323-6.576-.684-3.79s-.166-4.786-3.162-7.16l-.233-.184v-.127a4.333 4.333 0 0 0-.299-1.348.957.957 0 0 1-.107-.451.454.454 0 0 1 .059-.175c.14-.193.325-.348.539-.454.544-.33 1.007-.85 1.133-1.468a.285.285 0 0 1 0-.04c0-.027 0-.055.011-.084.012-.028 0-.03 0-.046a.617.617 0 0 0 0-.086V76.341a.077.077 0 0 1 0-.021c0-.038-.008-.078-.015-.116v-.008a1.34 1.34 0 0 0-.767-1.038.496.496 0 0 0 .339-.283.643.643 0 0 0 .07-.253v-.02a.993.993 0 0 0 0-.11v-.034a.662.662 0 0 0-.024-.107.132.132 0 0 0 0-.028l-.01-.024c-.11-.317-.373-.562-.6-.816-1.306-1.464-1.559-3.522-1.914-5.43-.197-1.058-.569-2.263-1.594-2.665a7.953 7.953 0 0 0-.883-.225c-.909-.241-1.653-.876-2.543-1.187a3.838 3.838 0 0 0-1.87-.157c-.477.08-.878.314-1.339.425-.992.243-2.196-.028-2.976.774-.547.557-.59 1.406-.86 2.132-.509 1.348-1.832 2.328-2.174 3.729-.22.902.009 1.818.248 2.726.181.61.303 1.235.364 1.868.009.16.009.32 0 .48a4.639 4.639 0 0 1-.313 1.359c-1.117.413-2.273.9-2.359 1.175-.165.54-2.863 2.082-2.863 2.082s-1.025.874-1.025 1.207c0 .332-.341 1.374-.556 1.374-.215 0-.64 4.204-.64 4.204v4.371s-1.579 5.162-1.942 9.742c0 0-.639 2.925.403 4.603.136.228.31.43.514.6l.532 1.39c.188-.312.426-.592.705-.826.026.173.056.377.092.603.045.285.098.607.166.953-.331.517-1.129 1.6-2.088 2.005-.887.374.267 1.362 1.064 1.939-.211 1.054-.517 2.347-.765 2.515-.428.291-1.794 3.955-1.794 3.955s-2.69 6.283 1.175 6.994c3.866.71 5.837-.958 5.837-.958h.926s1.126-.635 1.157-1.947c.63-.52 1.597-1.343 1.794-1.675.197-.333-.346-1.414-.69-2.004l.091-.165s3.676-4.704 4.145-4.205c.47.499.769 1.29.556 1.791l.201 2.882v4.495s-.527 2.04 0 2.248c.528.209 0 .992 0 .992s.197.916.234 1.207c.018.375.018.75 0 1.125l-.177 4.497-.343 6.659s-.383.543-.084.916c.299.374.165 1.25.084 1.416-.081.165-.127 1.54-.127 1.54s-1.24 1.29-.256 1.624l.038.012c-.407.377-.412 1.225-.38 1.488.031.262-.262 1.322-.482 1.922a1.477 1.477 0 0 1-.201.429c-.151.105 0 1.271 0 1.271s4.804.395 5.211 0c.165-.154.124-.527.008-.959a9.863 9.863 0 0 0-.734-1.81c-.279-.519-.149-1.186-.149-1.186v-.496c.323.052.533.081.533.081s.598-.496.342-.957c-.256-.461.47-3.037.47-3.037s.811-2.915.811-3.206c0-.291 1.068-4.079 1.068-4.079s1.581-6.702.812-9.867c0 0 .683-.79.597-.992-.086-.202-.284-1.083.008-1.456.293-.374 1.531-5.038 1.874-5.828.157-.366.55-1.374.927-2.358 1.701-.255 3.728-.724 3.728-.724s-.302-1.288-.527-2.604l.185-.905.066-.312c.153.15.289.316.405.496l.341-1.665s.038-.058.102-.165c.399-.624 1.851-2.864 2.547-3.543.811-.806.3-4.387 0-4.76Z"/><path fill="#925978" d="M123.275 73.572h-4.712v5.29h4.712v-5.29Z"/><path fill="#000" d="M123.275 73.572h-4.712v5.29h4.712v-5.29Z" opacity=".1"/><path fill="#FF6484" d="M111.658 119.163s1.199 1.901.91 2.397c-.29.496-2.27 2.108-2.27 2.108l-.585-3.968 1.945-.537Z"/><path fill="#575988" d="m107.938 125.28.875-.124h.896s1.191-.685 1.123-2.108c-.068-1.424 0-2.811 0-2.811l-2.894 5.043Z"/><path fill="#000" d="m107.938 125.28.875-.124h.896s1.191-.685 1.123-2.108c-.068-1.424 0-2.811 0-2.811l-2.894 5.043Z" opacity=".1"/><path fill="#575988" d="m109.709 105.895-4.96 5.456s-.578 3.596-.992 3.885c-.413.289-1.726 3.927-1.726 3.927s-2.6 6.241 1.138 6.944c3.738.702 5.641-.951 5.641-.951l3.174-5.745s3.557-4.671 4.011-4.175c.455.496.744 1.281.538 1.777l.193 2.852v4.464s-.509 2.026 0 2.232c.509.207 0 .992 0 .992s.192.91.226 1.199c.035.289 0 1.116 0 1.116l-.165 4.464-.331 6.613s-.372.538-.082.91c.289.372.165 1.24.082 1.405-.082.165-.124 1.529-.124 1.529s-1.198 1.282-.248 1.612c.951.331 3.72.744 3.72.744s.579-.496.331-.95c-.248-.455.455-3.018.455-3.018s.785-2.893.785-3.182c0-.29 1.033-4.051 1.033-4.051s1.53-6.655.786-9.796c0 0 .661-.785.578-.992-.082-.207-.276-1.075 0-1.447.277-.372 1.488-5.001 1.819-5.786.331-.786 1.736-4.588 1.736-4.588v-7.027l-17.618-.413Z"/><path fill="#FFC5CB" d="m124.516 80.97-2.853 5.392-.752 1.419-.115.216-7.357.29s-.21-.465-.507-1.186c-.515-1.248-1.292-3.269-1.684-4.973a10.375 10.375 0 0 1-.214-1.238c-.11-1.032.056-1.768.717-1.83.167-.016.336.002.496.05.46.136.941.183 1.419.138 1.746-.212 2.256-2.055 2.342-3.788 0-.122.012-.245.014-.365 0-.376 0-.74-.025-1.073a14.983 14.983 0 0 0-.195-1.69 7.174 7.174 0 0 1 1.365-.504c1.396-.358 3.362-.347 3.388 2.53-.003.637.06 1.273.189 1.897.074.356.193.701.355 1.027.484.93 1.157 1.032 1.473 1.02a.822.822 0 0 0 .174-.018l1.77 2.687Z"/><path fill="#000" d="M117.172 84.092c.102.293.154.601.154.911.031.327.024.656-.023.98-.047.329-.21.63-.46.849M119.254 76.675a4.423 4.423 0 1 0 0-8.845 4.423 4.423 0 0 0 0 8.845Z" opacity=".1"/><path fill="#FFC5CB" d="M123.675 72.087a4.42 4.42 0 0 1-8.728 1.004 4.423 4.423 0 0 1 4.862-5.391 4.426 4.426 0 0 1 3.362 2.339c.33.632.503 1.335.502 2.048h.002Z"/><path fill="#000" d="M112.155 83.12s1.57 4.092 4.877 3.43c0 0 3.338.262 5.249-2.19 1.911-2.452 2.026 14.053 2.026 14.053l-.744 10.954s-5.329 3.182-7.644 2.769c-2.314-.413-3.43-1.653-3.43-1.653s-2.439-2.274-3.1-2.563c-.662-.289.289-14.384.289-14.384l.785-5.29 1.692-5.126Z" opacity=".1"/><path fill="#E8F4FF" d="M112.155 82.79s1.57 4.091 4.877 3.43c0 0 3.338.261 5.249-2.19 1.911-2.453 2.026 14.053 2.026 14.053l-.744 10.953s-5.329 3.183-7.644 2.769c-2.314-.413-3.43-1.653-3.43-1.653s-2.439-2.273-3.1-2.563c-.662-.289.289-14.384.289-14.384l.785-5.29 1.692-5.126Z"/><path fill="#000" d="M111.989 105.895s3.555 3.968 3.348 4.381c-.206.413-3.43-3.183-3.348-4.381ZM111.377 96.028s1.136 1.587 1.847 1.421l-1.847-1.421Z" opacity=".1"/><path fill="#000" d="M113.833 79.11s0 .049-.012.138c-.038.507-.18 2.347-.372 4.398a158.65 158.65 0 0 1-.355 3.455c-.205 1.764-.424 3.176-.609 3.376-.537.579-.33 6.035-.33 6.035v6.903s-.453 2.19-.827 2.686c-.374.496-1.286 2.356-2.017 2.604a2.57 2.57 0 0 0-.683.544c-.661.662-1.597 1.764-2.315 2.634-.592.726-1.03 1.286-1.03 1.286s-2.893-1.818-1.653-2.356c.927-.402 1.695-1.476 2.02-1.984.111-.165.166-.282.166-.282a7.51 7.51 0 0 1 .263-1.138c.105-.351.259-.685.458-.992.151-.256.397-.442.684-.517 1.075-.207 1.612-10.416 1.612-10.416l-3.307-7.216-.33-.72s.413-4.175.62-4.175c.206 0 .537-1.034.537-1.364 0-.33.992-1.199.992-1.199s2.622-1.534 2.788-2.071c.087-.283 1.289-.794 2.408-1.214 1.006-.377 1.943-.681 1.943-.681.547.833-.651 2.267-.651 2.267Z" opacity=".1"/><path fill="#FF6484" d="M113.667 79.11s0 .049-.011.138c-.038.507-.18 2.347-.372 4.398-.108 1.157-.23 2.37-.356 3.455-.205 1.764-.423 3.176-.608 3.376-.537.579-.331 6.035-.331 6.035v6.903s-.453 2.19-.826 2.686c-.374.496-1.287 2.356-2.018 2.604a2.549 2.549 0 0 0-.682.544c-.662.662-1.597 1.764-2.315 2.634-.592.726-1.03 1.286-1.03 1.286s-2.893-1.818-1.653-2.356c.927-.402 1.694-1.476 2.02-1.984.111-.165.165-.282.165-.282a7.76 7.76 0 0 1 .263-1.138c.105-.351.259-.685.458-.992.151-.256.397-.442.685-.517 1.074-.207 1.612-10.416 1.612-10.416l-3.307-7.216-.331-.72s.414-4.175.62-4.175c.207 0 .538-1.034.538-1.364 0-.33.992-1.199.992-1.199s2.622-1.534 2.787-2.071c.088-.283 1.29-.794 2.409-1.214a51.559 51.559 0 0 1 1.943-.681c.547.833-.652 2.267-.652 2.267Z"/><path fill="#000" d="m130.108 88.607-3.569 4.185s3.1 16.079 2.728 16.823a.623.623 0 0 0-.055.195c-.038.385-.031.773.022 1.157.042.405.109.855.183 1.303.218 1.306.511 2.586.511 2.586s-4.175.992-5.456.868c-1.281-.124-.537-2.191-.331-3.142.207-.95-1.405-2.281-1.405-2.281l-2.273-9.333s-.166-2.067-.662-3.059-.041-2.067-.206-3.472c-.118-1.002.603-4.583 1.147-6.665.207-.791.389-1.365.496-1.5a.094.094 0 0 1 .017-.019c.33-.29 0-1.984 0-1.984s.785-4.464.702-4.836c-.046-.212.213-.73.447-1.14.176-.308.339-.555.339-.555s1.598 1.014 4.34 3.23l.248.201c2.893 2.356 3.058 7.11 3.058 7.11l-.281.328Z" opacity=".1"/><path fill="#FF6484" d="m130.273 88.607-3.569 4.185s3.1 16.079 2.728 16.823a.65.65 0 0 0-.055.195c-.038.385-.031.773.022 1.157.043.405.109.855.183 1.303.219 1.306.511 2.586.511 2.586s-4.174.992-5.456.868c-1.281-.124-.537-2.191-.33-3.142.206-.95-1.406-2.281-1.406-2.281l-2.273-9.333s-.165-2.067-.661-3.059-.042-2.067-.207-3.472c-.118-1.002.603-4.583 1.147-6.665.207-.791.389-1.365.496-1.5a.137.137 0 0 1 .017-.019c.33-.29 0-1.984 0-1.984s.785-4.464.702-4.836c-.046-.212.214-.73.447-1.14.177-.308.339-.555.339-.555s1.599 1.014 4.34 3.23l.248.201c2.893 2.356 3.058 7.11 3.058 7.11l-.281.328Z"/><path fill="#000" d="M122.736 90.85c-.041.33.992 17.897 2.067 18.93l-2.067-18.93Z" opacity=".1"/><path fill="#FFC5CB" d="M108.8 115.277c-1.157.728-2.04-1.187-2.645-3.394-.283-1.037-.496-2.138-.662-3.06a37.908 37.908 0 0 1-.155-.946c-.114-.737-.166-1.22-.166-1.22l1.217-.245 1.346-.269.165 1.519.078.689s.212.351.496.898c.799 1.601 2.154 4.889.326 6.028ZM130.052 109.954l-.289 1.426-.181.898-.01.045s-3.612 4.897-4.769 2.872c-.885-1.548 1.273-4.086 2.337-5.195.331-.344.556-.551.556-.551l1.681.361.675.144Z"/><path fill="#FF6484" d="M120.132 151.485c-.394.392-5.043 0-5.043 0s-.145-1.157 0-1.261c.088-.131.154-.275.195-.427.214-.603.496-1.653.467-1.908-.042-.35-.02-1.756.929-1.653 0 0 1.24-2.521 2.605.579v.744c-.068.398-.018.807.144 1.177a10 10 0 0 1 .711 1.797c.113.428.146.797-.008.952Z"/><path fill="#E8F4FF" d="M120.132 151.485c-.394.392-5.043 0-5.043 0s-.145-1.157 0-1.261c.088-.131.154-.275.195-.427.615-.263 1.452-.517 2.037-.296.739.281 2.103.774 2.811 1.032.121.428.154.797 0 .952Z"/><path fill="#000" d="M115.998 75.46c.118.473.28.95.286 1.434.01.66-.276 1.299-.58 1.894-.347.681-.739 1.412-.623 2.168.062.286.145.568.246.843a3.7 3.7 0 0 1-.235 2.665c-.271.547-.826 1.076-1.42.9-.044-.584-.117-1.22-.393-1.718a1.638 1.638 0 0 0-.442-.52c-.43-.33-1.023-.4-1.413-.773a1.206 1.206 0 0 1-.184-.225 1.725 1.725 0 0 1-.231-1.065c0-.056.011-.112.021-.165.08-.402.215-.792.4-1.157.103-.222.21-.444.318-.662.248-.494.457-1.007.625-1.534a51.788 51.788 0 0 1 1.942-.681c.551.826-.648 2.266-.648 2.266s0 .048-.011.138c1.746-.232 2.263-2.075 2.342-3.808ZM118.475 69.24c-.483.154-.944.461-1.157.924-.228.513-.111 1.105-.165 1.664a2.123 2.123 0 0 1-.07.362c-.205.686-.848 1.17-1.101 1.832-.018.05-.035.099-.05.152-.066.26-.078.531-.034.797a4.42 4.42 0 1 1 5.604.923c.187-.558.384-1.114.536-1.682.357-1.338.418-2.884-.423-3.983a2.95 2.95 0 0 0-3.14-.989ZM127.112 82.627c-.145.528-.516 1.106-1.061 1.082-.26-.012-.496-.166-.756-.19-.368-.034-.717.204-.939.495-.201.313-.376.641-.522.983-.407.79-1.204 1.5-2.084 1.377l-.09-.017a1.314 1.314 0 0 1-.263-.08c-.789-.332-1.216-1.347-1.187-2.244.033-1.024.461-1.993.601-3.008.131-.936.012-1.89.113-2.829.034-.31.089-.617.165-.919.485.93 1.157 1.032 1.473 1.02.177-.309.339-.555.339-.555s1.599 1.013 4.34 3.229a4.409 4.409 0 0 1-.129 1.656Z" opacity=".1"/><path fill="#925978" d="M120.879 64.326c.858.31 1.581.94 2.46 1.18.289.056.575.13.855.22.992.4 1.353 1.596 1.543 2.646.342 1.895.588 3.938 1.851 5.392.225.258.486.506.591.826.104.321-.037.764-.372.835.575.243.858.954.737 1.568-.121.613-.569 1.119-1.096 1.456-.246.166-.544.33-.577.622a.974.974 0 0 0 .104.45c.341.884.39 1.853.141 2.767-.146.526-.516 1.106-1.062 1.082-.259-.012-.496-.166-.754-.19-.37-.034-.717.204-.941.495-.201.313-.376.641-.522.983-.405.79-1.202 1.5-2.083 1.377-1.014-.144-1.573-1.323-1.541-2.341.031-1.019.463-1.993.603-3.008.129-.936.01-1.89.113-2.829.149-1.375.762-2.653 1.119-3.99.357-1.335.417-2.883-.425-3.982a2.943 2.943 0 0 0-3.141-.992c-.485.154-.944.461-1.158.924-.277.625-.041 1.37-.236 2.026-.22.737-.947 1.243-1.157 1.983-.245.892.33 1.798.347 2.72.01.662-.276 1.3-.579 1.895-.349.681-.74 1.412-.623 2.168.062.286.144.568.245.843a3.707 3.707 0 0 1-.229 2.681c-.271.548-.836 1.077-1.42.9-.064-.819-.18-1.741-.835-2.237-.431-.33-1.025-.4-1.415-.776a1.599 1.599 0 0 1-.418-1.292c.062-.466.205-.917.421-1.333.475-1.025 1.052-2.047 1.118-3.174.099-1.702-.992-3.378-.595-5.038.331-1.389 1.614-2.363 2.1-3.705.259-.721.3-1.566.826-2.12.761-.795 1.923-.526 2.885-.765.447-.113.827-.344 1.297-.422a3.576 3.576 0 0 1 1.823.155Z"/><path fill="#000" d="M109.14 99.609v5.373c0 .221 0 .451-.013.683-.056 1.488-.282 3.037-.282 3.037a4.977 4.977 0 0 0-.946-1.04c-.792-.623-1.467-.544-1.974-.26-.22.128-.418.288-.589.475a28.252 28.252 0 0 1-.165-1.22l1.217-.245c.151-.256.397-.442.684-.517 1.075-.207 1.612-10.416 1.612-10.416l-3.307-7.216v-.352l1.118-1.777c1.86-1.612 2.315.703 2.315.703s.33 6.282.33 6.448v6.324Z" opacity=".1"/><path fill="#FF6484" d="M108.81 99.24v5.373c0 .222 0 .452-.013.683-.057 1.488-.283 3.037-.283 3.037-2.315-3.265-3.948-.231-3.948-.231l-.516-1.381a2.307 2.307 0 0 1-.496-.595c-1.007-1.667-.39-4.571-.39-4.571.352-4.547 1.88-9.673 1.88-9.673v-4.34l1.12-1.777c1.86-1.612 2.646.703 2.646.703V99.24Z"/><path fill="#000" d="M108.8 105.131c-.056 1.488-.283 3.037-.283 3.037-2.315-3.265-3.948-.232-3.948-.232l-.516-1.38a2.344 2.344 0 0 1-.496-.595c1.078-.594 3.454-1.688 5.243-.83Z" opacity=".1"/><path fill="#FF6484" d="M108.8 105.296c-.056 1.488-.283 3.037-.283 3.037-2.315-3.265-3.948-.231-3.948-.231l-.516-1.381a2.327 2.327 0 0 1-.496-.595c1.078-.593 3.454-1.688 5.243-.83Z"/><path fill="#fff" d="M108.8 105.296c-.056 1.488-.283 3.037-.283 3.037-2.315-3.265-3.948-.231-3.948-.231l-.516-1.381a2.327 2.327 0 0 1-.496-.595c1.078-.593 3.454-1.688 5.243-.83Z" opacity=".1"/><path fill="#000" d="M105.668 94.115s.744 4.092 1.488 5.29c.744 1.199-1.488-5.29-1.488-5.29ZM103.764 101.059s.454 2.48 1.405 2.769c.951.289-1.405-2.769-1.405-2.769ZM129.377 109.81l.675.144-.289 1.426a3.549 3.549 0 0 0-2.623-1.38c-.367-.024-.736 0-1.097.069a9.255 9.255 0 0 0 .31-1.718 1.1 1.1 0 0 0-.104-.638c-.33-.454-.496-4.67-.496-4.67s.29-2.15.455-2.563c.165-.413-.744-2.526-.703-3.165.042-.638.538-6.135.538-6.424 0-.29 1.074-5.952 3.306-3.803l.868 1.199.056.32-3.569 4.185s3.1 16.079 2.728 16.823a.623.623 0 0 0-.055.195Z" opacity=".1"/><path fill="#FF6484" d="M133.114 106.225c-.675.675-2.078 2.9-2.464 3.519l-.099.165-.331 1.653s-1.157-1.984-3.844-1.488a9.175 9.175 0 0 0 .311-1.718c.03-.218-.007-.44-.104-.638-.331-.454-.496-4.67-.496-4.67s.289-2.15.455-2.563c.165-.413-.744-2.526-.703-3.165.041-.638.537-6.135.537-6.424 0-.29 1.075-5.952 3.307-3.803l.868 1.199.661 3.76 1.282 6.532s.33 2.562.62 2.934c.289.372.782 3.922 0 4.707Z"/><path fill="#000" d="m130.647 109.578-.099.166-.331 1.653s-1.157-1.984-3.844-1.488a9.204 9.204 0 0 0 .311-1.718c.921.058 2.776.318 3.963 1.387Z" opacity=".1"/><path fill="#FF6484" d="m130.647 109.744-.099.165-.331 1.653s-1.157-1.984-3.844-1.488a9.175 9.175 0 0 0 .311-1.718c.921.058 2.776.318 3.963 1.388Z"/><path fill="#fff" d="m130.647 109.744-.099.165-.331 1.653s-1.157-1.984-3.844-1.488a9.175 9.175 0 0 0 .311-1.718c.921.058 2.776.318 3.963 1.388Z" opacity=".1"/><path fill="#000" d="M127.944 98.124s2.81-.035 3.224 1.428c.413 1.464-3.224-1.428-3.224-1.428ZM127.406 102.257s4.754-.206 4.547 1.86c-.207 2.067-4.547-1.86-4.547-1.86ZM127.696 105.44s.372-.083.62.785-.62-.785-.62-.785ZM118.068 125.652s1.133-.331 1.654 0c.521.331-1.654 0-1.654 0ZM118.272 126.851s2.687.041 2.935.33c.248.29-2.935-.33-2.935-.33Z" opacity=".1"/><g fill="#000" opacity=".1"><path d="M112.55 75.725c.079-1.353-.587-2.687-.67-4.011-.086 1.335.592 2.681.661 4.044a.193.193 0 0 0 .009-.033ZM115.706 77.96c-.344.671-.728 1.389-.628 2.134.071-.567.362-1.116.628-1.636.302-.596.588-1.227.58-1.895 0-.073-.005-.146-.015-.218-.058.565-.306 1.104-.565 1.615ZM127.803 74.936c.123.052.235.126.331.218a.774.774 0 0 0 .043-.555s0-.015-.008-.023a.516.516 0 0 1-.366.36ZM115.092 83.636c-.271.547-.836 1.076-1.42.9-.064-.82-.18-1.742-.835-2.238-.431-.33-1.025-.4-1.413-.773a1.449 1.449 0 0 1-.41-.877c0 .027-.009.053-.01.08a1.583 1.583 0 0 0 .42 1.293c.388.375.982.45 1.413.775.662.496.771 1.418.835 2.237.584.177 1.149-.352 1.42-.9.283-.58.409-1.225.366-1.87a3.665 3.665 0 0 1-.366 1.373ZM128.541 76.503c-.121.612-.569 1.12-1.095 1.457-.248.165-.545.33-.578.622a.708.708 0 0 0 .056.33c.135-.19.314-.344.522-.45.526-.33.974-.844 1.095-1.456.032-.178.032-.36 0-.537v.034ZM127.112 81.799c-.145.526-.514 1.106-1.061 1.081-.26-.011-.496-.165-.754-.19-.37-.033-.718.205-.941.496-.201.312-.375.64-.521.982-.406.79-1.203 1.501-2.083 1.377-.879-.124-1.443-1.071-1.529-1.999 0 .052-.012.103-.012.156-.033 1.023.526 2.197 1.541 2.341.88.124 1.677-.587 2.083-1.377.145-.342.32-.67.521-.982.223-.296.571-.534.941-.496.258.025.496.178.754.19.547.025.916-.556 1.061-1.081a4.35 4.35 0 0 0 .147-1.432 4.343 4.343 0 0 1-.147.934ZM121.62 69.898c.419.578.65 1.27.661 1.984.043-.9-.125-1.785-.661-2.49a2.943 2.943 0 0 0-3.141-.992c-.485.154-.945.462-1.158.924-.279.626-.043 1.371-.238 2.026-.22.737-.947 1.243-1.157 1.984a1.897 1.897 0 0 0-.043.727c.009-.077.023-.154.043-.23.203-.74.931-1.246 1.157-1.984.195-.66-.041-1.4.238-2.025.207-.463.662-.77 1.158-.924a2.94 2.94 0 0 1 3.141 1Z" opacity=".1"/></g><g opacity=".8"><path fill="#1769FF" d="M172.432 133.289c7.323 0 13.26-5.937 13.26-13.26 0-7.323-5.937-13.26-13.26-13.26-7.323 0-13.26 5.937-13.26 13.26 0 7.323 5.937 13.26 13.26 13.26Z" opacity=".8"/><path fill="#fff" d="M168.538 114.019a7.553 7.553 0 0 1 1.566.152c.432.085.844.253 1.212.496.337.232.606.549.782.918.199.444.295.928.279 1.415a2.644 2.644 0 0 1-.413 1.515 3.01 3.01 0 0 1-1.22.992 2.891 2.891 0 0 1 1.653 1.119 3.672 3.672 0 0 1 .193 3.502 3.04 3.04 0 0 1-.95 1.084 4.223 4.223 0 0 1-1.364.624 6.277 6.277 0 0 1-1.573.201h-5.819v-12.018h5.654Zm-.331 4.864c.412.018.818-.098 1.158-.33.304-.221.456-.586.454-1.095a1.396 1.396 0 0 0-.152-.689 1.126 1.126 0 0 0-.403-.422 1.72 1.72 0 0 0-.58-.21 4.011 4.011 0 0 0-.683-.058h-2.48v2.811l2.686-.007Zm.153 5.099c.248.001.497-.024.74-.076.221-.044.432-.129.622-.251.182-.121.33-.286.43-.48.116-.241.173-.507.165-.775 0-.615-.173-1.057-.522-1.323a2.228 2.228 0 0 0-1.381-.397h-2.877v3.307l2.823-.005Zm7.919-.253c.359.348.875.523 1.548.523.444.011.881-.118 1.249-.367.295-.175.521-.445.64-.766h2.103c-.337 1.044-.853 1.79-1.549 2.239-.76.468-1.64.703-2.533.676a4.977 4.977 0 0 1-1.85-.331 3.83 3.83 0 0 1-1.397-.934 4.189 4.189 0 0 1-.884-1.447 5.31 5.31 0 0 1-.311-1.851 5.064 5.064 0 0 1 .319-1.819 4.198 4.198 0 0 1 2.315-2.422 4.495 4.495 0 0 1 1.81-.354 4.148 4.148 0 0 1 1.936.43c.535.275.999.671 1.354 1.157.36.497.62 1.058.766 1.654.157.632.213 1.286.165 1.936h-6.283c.033.77.23 1.332.589 1.678l.013-.002Zm2.702-4.576c-.287-.314-.722-.471-1.305-.471a2.068 2.068 0 0 0-.951.193 1.766 1.766 0 0 0-.925 1.085 2.78 2.78 0 0 0-.11.572h3.882c-.11-.606-.309-1.065-.598-1.379h.007Zm-3.707-4.527h4.856v1.347h-4.856v-1.347Z" opacity=".8"/></g><g opacity=".8"><path fill="#B3BBC6" d="M232.352 127.795v.375a13.26 13.26 0 1 1 .007-.375h-.007Z" opacity=".8"/><path fill="#666C76" d="M232.345 128.17a13.26 13.26 0 0 1-11.657 12.788l-10.826-8.053 1.352-8.763 5.354.331 3.045 2.553 2.166-3.53 3.637 3.022 1.956 1.401v-4.42l4.93 4.563c.012.037.03.072.043.108Z" opacity=".8"/><path fill="#fff" d="M218.143 128.12c0-2.81-1.728-4.715-5.018-4.715h-3.249v9.46h3.317c3.194 0 4.95-1.934 4.95-4.745Zm-2.359.015c0 2.029-1.042 2.907-2.713 2.907h-.852v-5.813h.852c1.603 0 2.713.917 2.713 2.906Zm11.696 4.73v-9.46h-2.181v5.291l-3.482-5.291h-2.277v9.459h2.181v-5.661l3.728 5.661h2.031v.001Z" opacity=".8"/></g><path fill="url(#d)" d="M222.382 113.688c-.165-.33-1.708-2.542-1.708-2.542l-.046-.199-.506-2.257-.035-.165c.331-.084.569-.188.644-.319.363-.637-.308-1.41-.308-1.41l-.14-3.347-.364-8.101s-.756-2.712-.868-3.346c-.113-.635-1.148-1.965-1.148-1.965s.224-.66-.056-1.134c-.279-.473-.896-2.683-.896-2.683l-.531-6.117-.253-6.019c.254-.001.507.022.756.072.036.03.016-.045-.036-.179a.108.108 0 0 1 .036.013c.086.07-.144-.448-.392-.975l-.03-.061c.119-.432.612-2.18.954-2.811.255-.466-.234-3.685-.608-5.884l-.078-.453a639.923 639.923 0 0 1 1.303-2.265s1.762-5.033 2.49-7.219c.727-2.186 0-7.853 0-7.853s0-.278-.04-.711c-.114-1.17-.55-3.46-2.227-4.35-2.295-1.217-3.022-2.71-3.022-2.71s-2.864-2.605-3.226-1.73l-.025-.05a5.727 5.727 0 0 1-.494-1.525c.366-.289.684-.634.943-1.022 0 .073-.012.146-.017.219v.2a.69.69 0 0 0 0 .09v.055a.527.527 0 0 0 .521-.29c.089-.19.149-.394.177-.603.096-.445.274-.869.524-1.25.245-.375.572-.752.615-1.18a.99.99 0 0 0 0-.189c-.022-.218-.124-.421-.156-.638a1.407 1.407 0 0 1 0-.33c0-.065.015-.13.025-.192.01-.063.027-.166.038-.258.012-.093.022-.144.03-.217v-.008c.023-.19.023-.383 0-.574a1.11 1.11 0 0 0-.536-.863c-.165-.084-.355-.11-.52-.195-.437-.223-.576-.759-.827-1.172a2.068 2.068 0 0 0-1.637-.94c-.661-.027-1.309.262-1.959.165-.415-.067-.797-.291-1.217-.321-.613-.043-1.166.33-1.663.69-.352.252-.728.538-.843.955-.093.34 0 .732-.192 1.03-.124.193-.349.304-.488.496a.824.824 0 0 0-.165.53v.143c.011.127.034.256.056.382a.263.263 0 0 1 0 .04c.05.348-.063.593-.189.934a1.459 1.459 0 0 0-.089.448v.056a.767.767 0 0 0 0 .096c.015.119.067.23.149.317a.499.499 0 0 1 .165-.165v.16a4.374 4.374 0 0 0 1.323 3.125c0 .048-.013.098-.02.146a22.32 22.32 0 0 1-.279 1.564l-.04.165h-.827s.141-.608-1.231.139c-1.373.747-3.052 1.106-3.307 1.243-.255.137-3.358 2.546-3.358 2.546s-2.688 1.548-2.604 4.203l-.307 2.976-.224 5.559s-.42 4.73 0 5.393c.42.663 1.148 4.591 1.007 5.089-.101.36.913 2.893 1.617 4.37-.189.199-.364.41-.524.634 0 0-.281 1.108-.281 1.219 0 0 0 .011.013.018-.62.628-1.608 1.662-1.608 1.89 0 .33.196.62-.111.6-.308-.02-.318.34-.299.56.018.22-.374-.109-.346.305.028.413-2.855 6.914-2.855 6.914s-1.315 3.18-1.819 3.707c-.504.525-1.204 2.848-1.147 3.705.056.856.084 1.107-.141 1.107-.225 0-.671.774-.671.774l-2.211 6.804s-.645 2.101-.84 2.075c-.195-.027-.634 3.61-.634 3.61s-.475 1.078-.559 1.078c-.017 0 .061.078.205.201l-.096.081a7.33 7.33 0 0 1-.653.496c-.009 0-1.278-.882-2.15-.799-.871.083-2.658.303-3.556-.331-.496-.354-1.542-.661-2.384-.674-.671-.01-1.215.165-1.253.674-.085 1.133 3.05 3.264 3.05 3.264s3.307.939 3.947 1.819c.639.879 3.283 2.212 3.283 2.212s.795-.351 1.095-.703a.35.35 0 0 0 .109-.263c-.056-.415 1.091-1.984 1.091-1.984l.165-.778a40.708 40.708 0 0 1 .324-1.432.974.974 0 0 0 .386-.06c1.119-.441 1.231-1.653 1.231-1.653l1.675-3.504s.728-2.018.951-2.379c.223-.36 1.959-3.98 1.959-3.98s.308-1.55.589-2.02c.281-.47.307-1.488.307-1.488s.587-1.549 1.204-2.157a8.156 8.156 0 0 0 1.147-1.576s2.546-4.01 4.282-5.143c0 0 4.172-5.09 4.423-5.532.251-.444 1.035-1.604 1.984-.554.949 1.05 1.958 2.407 1.958 2.407l1.709 4.646 1.903 5.952s.895 1.437.84 1.74c-.055.305 1.455 3.016 1.455 3.016s.587.993.476 1.489c-.111.496.42.992.42.992l.165 2.018s.617 1.984.448 2.297c-.168.312.589 2.212.589 2.212s0 1.686.279 2.24c.28.554.62 2.764.592 2.93-.028.165 0 1.688 0 1.688s.197 0 .509-.01l.014.165.139 1.665.013.154a.658.658 0 0 0-.256.486c0 .45.066 1.771.122 2.811.013.276.028.53.041.744a.555.555 0 0 0 .196.387.543.543 0 0 0 .416.124 7.343 7.343 0 0 1 2.389.089 8.77 8.77 0 0 0 2.659.195s.061-.623.071-1.182c.008-.357-.005-.686-.07-.814Z"/><path fill="#FFAAB0" d="M220.241 111.223h-3.774l-.037-.444-.137-1.66-.102-1.257h3.306l.202.914.498 2.249.044.198ZM185.548 104.554c-.071.069-.189.487-.308.992-.213.886-.436 2.038-.436 2.038l-.139.033-2.943.711s-1.543-3.526-.827-3.609c.253-.053.491-.159.699-.311.236-.156.462-.327.677-.512.392-.331.691-.638.691-.638s2.779 1.102 2.586 1.296Z"/><path fill="#000" d="M185.548 104.554c-.071.069-.189.488-.308.992-1.017-.06-2.554-1.267-2.976-1.654.392-.33.691-.638.691-.638s2.786 1.106 2.593 1.3ZM219.697 108.775c-.906.244-2.567.319-3.406.342l-.102-1.257h3.307l.201.915Z" opacity=".1"/><path fill="#DCE6F2" d="M195.716 70.11s-2.067 2.038-2.067 2.37c0 .33.193.616-.109.598-.303-.019-.313.338-.294.558.018.22-.367-.11-.341.303.026.413-2.811 6.89-2.811 6.89s-1.294 3.169-1.79 3.691c-.496.523-1.186 2.84-1.129 3.694.056.855.082 1.101-.139 1.101-.222 0-.662.772-.662.772l-2.175 6.779s-.635 2.094-.827 2.066c-.192-.028-.661 3.61-.661 3.61s-.47 1.074-.553 1.074c-.082 0 2.398 2.15 3.5 1.71 1.103-.44 1.212-1.653 1.212-1.653l1.654-3.472s.717-2.013.937-2.371c.22-.36 1.93-3.968 1.93-3.968s.302-1.543.578-2.01c.276-.469.303-1.489.303-1.489s.578-1.544 1.185-2.15a8.096 8.096 0 0 0 1.129-1.57s2.509-3.996 4.216-5.125c0 0 4.106-5.07 4.354-5.512.248-.442 1.02-1.597 1.957-.55.938 1.046 1.928 2.396 1.928 2.396l1.681 4.63 1.874 5.924s.883 1.433.826 1.736c-.056.302 1.434 3.004 1.434 3.004s.578.992.468 1.488c-.111.496.413.992.413.992l.165 2.012s.607 1.984.442 2.286c-.166.303.578 2.204.578 2.204s0 1.682.277 2.232c.276.551.605 2.756.578 2.922-.026.165 0 1.681 0 1.681s4.158-.028 4.517-.661-.302-1.405-.302-1.405l-.139-3.335-.357-8.073s-.744-2.702-.855-3.335c-.111-.633-1.129-1.956-1.129-1.956s.219-.661-.057-1.131-.881-2.672-.881-2.672l-.524-6.09-.269-6.64-20.065-3.555Z"/><path fill="#000" d="M216.548 74.38c-.166-.138-6.944-.193-7.027-.193-.083 0-2.645-1.02-2.645-1.02s-5.704-.936-6.586-.523c-.881.414-3.61-.772-3.61-.772v-.524s-1.46-.496-1.46-.605c0-.11.276-1.213.276-1.213l.165-.058.632-.217 19.372 3.113s.256.526.496 1.04.471 1.042.387.972Z" opacity=".1"/><path fill="#F1FAFF" d="M216.548 74.215c-.166-.139-6.944-.193-7.027-.193-.083 0-2.645-1.02-2.645-1.02s-5.704-.936-6.586-.523c-.881.413-3.61-.772-3.61-.772v-.524s-1.46-.496-1.46-.605c0-.11.276-1.214.276-1.214l.165-.058.632-.216 19.372 3.113s.256.526.496 1.04.471 1.041.387.972Z"/><path fill="#000" d="m184.961 106.64-.166.779-.139.198-2.934.711s-1.543-3.526-.827-3.609c.253-.053.491-.159.699-.311-.15 1.105.706 2.267.706 2.267 1.209.909 2.661-.035 2.661-.035Z" opacity=".1"/><path fill="#575988" d="m184.961 106.807-.166.779s-1.129 1.571-1.074 1.984a.352.352 0 0 1-.108.263c-.294.35-1.078.699-1.078.699s-2.589-1.322-3.224-2.204c-.635-.881-3.885-1.818-3.885-1.818s-3.085-2.123-3.002-3.252c.036-.496.572-.682 1.233-.672.827.01 1.857.319 2.348.672.883.633 2.645.413 3.5.33.855-.082 2.111.797 2.111.797-.286 1.157.671 2.455.671 2.455 1.222.911 2.674-.033 2.674-.033Z"/><path fill="#F1FAFF" d="M183.621 109.831c-.294.351-1.077.699-1.077.699s-2.59-1.322-3.224-2.203c-.635-.882-3.886-1.819-3.886-1.819s-3.085-2.123-3.002-3.252c.036-.496.572-.681 1.233-.671.496.826 1.229 1.975 1.769 2.296.883.524 2.619 1.516 2.619 1.516s2.755 1.736 2.948 1.93c.159.16 1.754 1.215 2.62 1.504Z"/><path fill="#000" d="M220.245 111.222h-3.78l-.036-.445c.476-.448 1.496-.661 1.496-.661.708-.217 2.012.712 2.27.904l.05.202Z" opacity=".1"/><path fill="#575988" d="M221.992 114.565c-.01.557-.071 1.177-.071 1.177a8.53 8.53 0 0 1-2.617-.194 7.168 7.168 0 0 0-2.351-.089.54.54 0 0 1-.604-.509c-.011-.212-.026-.466-.039-.741-.057-1.03-.121-2.346-.121-2.794 0-.77 1.736-1.129 1.736-1.129.787-.242 2.315.937 2.315.937s1.516 2.204 1.681 2.535c.064.127.078.455.071.807Z"/><path fill="#F1FAFF" d="M221.992 114.565c-.01.557-.071 1.177-.071 1.177a8.53 8.53 0 0 1-2.617-.194 7.168 7.168 0 0 0-2.351-.089.54.54 0 0 1-.604-.509c-.011-.212-.026-.466-.039-.741.634-.096 1.57-.188 2.222-.038.757.175 2.496.323 3.46.394Z"/><path fill="#000" d="M184.349 98.01s-.579.992 0 1.447c.579.454 0-1.447 0-1.447ZM215.432 101.854c.165.331.605.827.529 1.405-.076.579-.529-1.405-.529-1.405Z" opacity=".1"/><path fill="#FFAAB0" d="M214.922 41.396s-2.524-.256-5.141-.603l-.108-.015c-3.039-.405-6.157-.93-5.553-1.311.269-.165.496-.585.682-1.114a9.75 9.75 0 0 0 .293-1.034l.038-.165c.114-.52.205-1.065.276-1.558.141-1.003.199-1.803.199-1.803s6.476-2.454 5.677.605a3.338 3.338 0 0 0-.023 1.498c.095.475.25.936.461 1.372 1.032 2.202 3.199 4.128 3.199 4.128Z"/><path fill="#000" d="M211.285 34.396a3.338 3.338 0 0 0-.023 1.498 4.381 4.381 0 0 1-5.853-.3c.141-1.003.199-1.803.199-1.803s6.476-2.453 5.677.605Z" opacity=".1"/><path fill="#FFAAB0" d="M212.882 32.326a4.38 4.38 0 1 1-8.762.01v-.01a4.38 4.38 0 1 1 8.762 0Z"/><path fill="#000" d="M209.838 40.613a.816.816 0 0 1-.057.18l-.108-.015c-3.039-.405-6.157-.93-5.553-1.311.269-.165.496-.585.682-1.114.117-.34.214-.684.293-1.034l.038-.165h.127c.01.07.331 2.187 3.173 2.55l.096.01c1.109.125 1.392.489 1.309.899Z" opacity=".1"/><path fill="#F1FAFF" d="M209.673 40.778c-.139.686-1.309 1.5-1.309 1.5l-3.252-.607s-2.039-1.819-2.039-1.873c0-.055 1.212-2.48 1.212-2.48h.81c.01.07.331 2.187 3.173 2.55l.096.01c1.109.126 1.392.49 1.309.9Z"/><path fill="#000" d="M214.922 41.396s-2.594-.263-5.249-.618c-.139.686-1.309 1.5-1.309 1.5l-3.252-.607s-2.039-1.819-2.039-1.873c0-.055 1.212-2.48 1.212-2.48h.041c.107.366.267.715.476 1.035.511.78 1.488 1.635 3.307 1.527l.152-.011c2.73-.227 3.343-2.117 3.456-2.603 1.038 2.204 3.205 4.13 3.205 4.13ZM216.161 73.243l-.055.2c-.661-.496-5.482-.827-5.482-.827s-1.268-.148-2.48-.342c-.88-.14-1.73-.306-2.042-.456a2.082 2.082 0 0 0-.223-.085c-1.098-.344-4.464-.742-4.464-.742s-1.654.744-2.535.413c-.881-.33-3.389-1.874-3.389-1.874s.054-.083.165-.224l.632-.216 19.372 3.113s.263.526.501 1.04Z" opacity=".1"/><path fill="#575988" d="M216.472 64.53c.368 2.192.849 5.398.6 5.863-.387.716-.966 2.893-.966 2.893-.661-.496-5.482-.827-5.482-.827s-1.268-.149-2.48-.342c-.88-.14-1.73-.306-2.042-.456a2.061 2.061 0 0 0-.223-.085c-1.098-.343-4.464-.742-4.464-.742s-1.654.744-2.535.413c-.881-.33-3.389-1.874-3.389-1.874a8.111 8.111 0 0 1 1.24-1.35c.853-.772 2.424-7.413 2.384-7.496-.04-.083-.428-2.204-.318-3.444.111-1.24-.33-7.303-.33-7.303s-4.433-1.716-4.51-4.361c-.078-2.645 2.562-4.188 2.562-4.188s3.059-2.397 3.307-2.536c.248-.139 1.901-.496 3.252-1.24 1.351-.744 1.212-.137 1.212-.137s.552 2.921 3.831 2.728c3.278-.194 3.637-2.728 3.637-2.728.352-.882 3.176 1.736 3.176 1.736s.716 1.488 2.976 2.7c1.653.886 2.08 3.167 2.192 4.333.042.431.04.71.04.71l-6.641 4.767 2.61 10.884s.165.888.361 2.082Z"/><path fill="#FFAAB0" d="M200.042 70.192s2.178 3.747 4.436 2.7a2.643 2.643 0 0 0 1.207-1.104c.891-1.54 0-3.507-1.726-3.968-.636-.165-1.322-.27-1.878-.165-1.571.277-2.039 2.537-2.039 2.537Z"/><path fill="#000" d="M200.042 70.192s2.178 3.747 4.436 2.7a2.643 2.643 0 0 0 1.207-1.104c.891-1.54 0-3.507-1.726-3.968-.636-.165-1.322-.27-1.878-.165-1.571.277-2.039 2.537-2.039 2.537ZM196.846 42.83s1.718 1.157 1.755 2.976l-1.755-2.976ZM199.546 43.711c0 .11-.496 7.77.386 10.388.881 2.617-.386-10.388-.386-10.388ZM212.882 32.326a4.347 4.347 0 0 1-.709 2.39v-.164c-.028-.46-.271-.875-.508-1.272a2.521 2.521 0 0 0-.661-.817 1.263 1.263 0 0 1-.223-.165c-.152-.165-.136-.428-.165-.661a1.485 1.485 0 0 0-1.189-1.24.497.497 0 0 0-.371.053c-.112.079-.165.226-.259.317-.149.134-.377.117-.574.08-.433-.087-.884-.244-1.304-.105-.721.24-.992 1.237-1.731 1.422-.219.033-.44.048-.662.047a.913.913 0 0 0-.403.123v-.01a4.38 4.38 0 0 1 7.479-3.097 4.38 4.38 0 0 1 1.284 3.098l-.004.001Z" opacity=".1"/><path fill="#794F6A" d="M204.163 29.418c.137-.184.357-.294.481-.488.188-.296.096-.686.188-1.025.113-.415.483-.7.827-.952.496-.357 1.033-.73 1.637-.688.413.03.788.255 1.198.32.64.105 1.282-.183 1.93-.165a2.023 2.023 0 0 1 1.61.94c.256.41.392.944.827 1.157.165.084.35.11.512.195a1.11 1.11 0 0 1 .528.861c.023.35-.002.7-.073 1.044a1.88 1.88 0 0 0-.023.524c.03.216.132.418.154.636.049.496-.331.931-.607 1.356a3.765 3.765 0 0 0-.514 1.247 2.01 2.01 0 0 1-.176.601.515.515 0 0 1-.512.29c-.032-.3.043-.602.023-.903-.028-.46-.271-.875-.508-1.27a2.508 2.508 0 0 0-.661-.818 1.173 1.173 0 0 1-.221-.165c-.154-.166-.138-.427-.166-.662a1.476 1.476 0 0 0-1.189-1.238.495.495 0 0 0-.37.051c-.112.08-.165.227-.259.318-.149.134-.377.119-.574.079-.433-.084-.885-.243-1.305-.104-.721.24-.992 1.236-1.731 1.422-.219.033-.44.049-.661.046a.695.695 0 0 0-.569.296c-.221-.232-.177-.609-.068-.91.128-.352.243-.601.181-.972-.063-.37-.146-.707.091-1.023Z"/><path fill="#000" d="M188.069 89.537s-1.571.826-.744.991c.827.166.744-.992.744-.992ZM213.944 91.52s.868-1.157 1.818-.454c.951.703-1.818.455-1.818.455ZM215.961 92.264s1.083-.371 1.744 0h-1.744ZM194.558 73.5s2.315 2.231 3.059 2.314c.744.083-3.059-2.315-3.059-2.315ZM194.889 44.153l-.602 1.266-.304 2.976-.22 5.539s-.413 4.712 0 5.373c.413.661 1.129 4.575.992 5.07-.137.497 1.819 5.126 2.178 5.402.358.276 1.625.33 2.341.192l1.309 1.245 3.707-3.42-2.288-1.737s.524-.883-.936-1.847c0 0-.661-1.102-.69-1.681a12.277 12.277 0 0 0-.606-3.472c-.523-1.543-.827-10.112-.827-10.112s-1.243-6.256-4.054-4.794Z" opacity=".1"/><path fill="#575988" d="m194.558 44.153-.601 1.266-.305 2.976-.22 5.539s-.413 4.712 0 5.373c.414.661 1.13 4.575.992 5.07-.137.497 1.819 5.126 2.178 5.402.359.276 1.625.33 2.341.192l1.309 1.245 3.707-3.42-2.288-1.737s.524-.883-.936-1.847c0 0-.661-1.102-.689-1.681a12.313 12.313 0 0 0-.607-3.472c-.522-1.543-.827-10.112-.827-10.112s-1.243-6.256-4.054-4.794Z"/><path fill="#000" d="M200.319 64.874c-.166.082-3.501 3.17-2.261 3.252 1.24.082 2.261-3.252 2.261-3.252Z" opacity=".1"/><path fill="#FFAAB0" d="M204.561 68.594s-4.767.496-4.519 2.425c.248 1.93 3.638 3.788 4.712 3.203 1.075-.586 1.984-1.144 1.984-1.144l-2.177-4.484Z"/><path fill="#000" d="m219.11 45.475.69 1.323s.716 5.648 0 7.825c-.716 2.178-2.452 7.192-2.452 7.192s-2.095 3.666-2.149 3.83c-.055.166-4.025 5.897-4.741 6.2-.715.305-2.066.145-2.149-.19-.083-.333-1.901 1.423-1.901 1.423s-3.505-4.236-2.948-4.678c.557-.441 2.245-.55 2.245-.55s.124.413.261-.442c.138-.855.772-1.294 1.24-1.24.468.055.276-.44.359-.964.083-.524 1.377-1.46 1.377-1.46s.635-1.02.635-1.626c0-.607 1.323-1.13 1.432-1.13.109 0 .083-.248.083-1.129s.661-2.453.661-2.453l.408-4.96.718-5.043s1.961-6.144 6.231-1.928Z" opacity=".1"/><path fill="#000" d="M216.111 62.448s.166.888.366 2.074a31.517 31.517 0 0 0-.614 1.122c-.054.165-4.022 5.898-4.738 6.2-.716.303-2.067.144-2.15-.188-.036-.15-.415.114-.826.453-.513.423-1.077.967-1.077.967s-.555-.671-1.188-1.508c-.959-1.263-2.095-2.901-1.761-3.168.557-.441 2.247-.55 2.247-.55s.124.413.261-.442.772-1.294 1.24-1.24c.468.055.276-.441.359-.964.082-.522 1.377-1.461 1.377-1.461s.633-1.019.633-1.625c0-.607 1.323-1.13 1.434-1.13.11 0 .082-.248.082-1.13 0-.883.662-2.452.662-2.452l.408-4.96.716-5.043s1.957-6.145 6.228-1.93l.319.614c.041.431.04.71.04.71l-6.642 4.767 2.624 10.884Z" opacity=".1"/><path fill="#575988" d="m219.441 45.475.689 1.323s.716 5.648 0 7.825c-.715 2.178-2.451 7.192-2.451 7.192s-2.095 3.666-2.15 3.83c-.054.166-4.024 5.897-4.74 6.2-.716.305-2.067.145-2.149-.19-.083-.333-1.902 1.423-1.902 1.423s-3.505-4.236-2.947-4.678c.557-.441 2.245-.55 2.245-.55s.124.413.261-.442.772-1.294 1.24-1.24c.468.055.276-.44.359-.964.082-.524 1.377-1.46 1.377-1.46s.635-1.02.635-1.626c0-.607 1.323-1.13 1.432-1.13.109 0 .082-.248.082-1.129s.662-2.453.662-2.453l.408-4.96.718-5.043s1.96-6.144 6.231-1.928Z"/><path fill="#000" d="M207.152 67.618s.165.372.909.508c.744.135-.909-.508-.909-.508ZM216.052 45.502c-.027.082-2.48 2.855-1.984 3.577.496.723 1.984-3.577 1.984-3.577ZM213.269 58.232s1.405 1.38 1.129 2.04c-.276.662-1.129-2.04-1.129-2.04ZM213.489 55.615c.083.137 3.115.496 3.28 1.653.166 1.158-3.28-1.653-3.28-1.653Z" opacity=".1"/><g fill="#000" opacity=".1"><path d="M213.797 30.832c0-.063.014-.128.024-.192.062-.315.089-.636.08-.957-.014.21-.05.42-.08.626a1.831 1.831 0 0 0-.024.523ZM204.073 30.508a1.14 1.14 0 0 0 0-.37c-.02-.117-.041-.234-.053-.351-.017.229.001.459.053.683v.038ZM213.944 31.733c-.071.393-.367.745-.594 1.094-.246.38-.42.802-.514 1.245a2.108 2.108 0 0 1-.175.602.52.52 0 0 1-.513.29 2.236 2.236 0 0 0 0 .33.517.517 0 0 0 .513-.29c.088-.19.147-.393.175-.601.094-.443.268-.865.514-1.245.275-.425.661-.853.605-1.358.007-.023-.008-.044-.011-.067ZM212.171 34.062c-.028-.46-.271-.876-.507-1.271-.16-.32-.386-.6-.662-.827a1.258 1.258 0 0 1-.223-.165c-.152-.165-.135-.428-.165-.662a1.482 1.482 0 0 0-1.189-1.238.495.495 0 0 0-.37.051c-.113.08-.166.227-.26.32a.665.665 0 0 1-.574.079c-.433-.086-.884-.245-1.304-.104-.721.238-.992 1.235-1.733 1.42-.219.033-.44.05-.661.048a.69.69 0 0 0-.567.294.552.552 0 0 1-.144-.29.708.708 0 0 0 .144.62.687.687 0 0 1 .567-.294c.221.002.442-.014.661-.047.738-.186 1.012-1.183 1.733-1.42.42-.141.871.017 1.304.104a.674.674 0 0 0 .574-.08c.103-.093.147-.24.26-.319a.495.495 0 0 1 .37-.051 1.474 1.474 0 0 1 1.189 1.238c.028.228.011.485.165.662.068.063.143.118.223.165.276.226.502.508.662.826.23.386.463.79.496 1.234.01-.097.014-.195.011-.293Z" opacity=".1"/></g><path fill="#61BEEC" d="M157.831 48.276v17.35a.276.276 0 0 0 .278.276c4.778-.149 8.763-4.099 8.763-8.951 0-4.853-3.982-8.804-8.763-8.951a.269.269 0 0 0-.258.17.261.261 0 0 0-.02.106Z"/><path fill="#4064AC" d="M145.899 71.97V57.61a10.507 10.507 0 0 1 2.095-6.373c1.301-1.71 3.326-3.257 6.388-3.237a.318.318 0 0 1 .292.192.31.31 0 0 1 .024.12v14.781s.496 8.078-8.624 9.034a.164.164 0 0 1-.159-.094.172.172 0 0 1-.016-.063Z"/><path fill="#00BAFC" d="M108.304 46.38a5.208 5.208 0 1 0 0-10.417 5.208 5.208 0 0 0 0 10.416ZM97.392 31.995a3.224 3.224 0 1 0 0-6.448 3.224 3.224 0 0 0 0 6.448ZM80.53 37.947a1.984 1.984 0 1 0 0-3.967 1.984 1.984 0 0 0 0 3.968Z" opacity=".1"/><path fill="#00BAFC" d="M146.311 135.092a2.831 2.831 0 0 0-.377.71c-.023.061-.047.132-.07.2a.588.588 0 0 0-.13-.045 1.837 1.837 0 0 0-.591-.051c0-.076.01-.165.012-.241.025-.872-.078-2.087-.909-1.573-.797.496-.228 1.323.286 1.854l.132.129c-.47.33-.559 1.112-.637 1.924-.077.812-.767 1.701-1.225 2.206-.046.051-.087.097-.129.14a1.666 1.666 0 0 0-1.331-.342 6.625 6.625 0 0 0-.061-.225c-.368-1.344-1.137-3.659-2.119-4.155l.129-.165c.416-.546.886-1.356.193-1.563-.693-.206-.755.703-.717 1.384 0 .085.013.166.019.242a1.003 1.003 0 0 0-.724.354l-.107-.126c-.562-.661-1.592-1.715-1.905-.919-.289.74.617 1.701 1.255 2.258l.04.035c-.429 1.739 1.441 3.156 2.448 3.776l.131.079c-1.389 1.637-2.247 4.704-2.247 4.704l3.89.694s2.578-2.225 2.247-4.313h.027c2.577-.516 3.162-3.264 2.762-4.896.015 0 .03-.011.045-.019a2.935 2.935 0 0 0 1.194-.901c.721-1.007-.791-2.138-1.531-1.155Z"/><path fill="#000" d="M146.311 135.092a2.831 2.831 0 0 0-.377.71c-.023.061-.047.132-.07.2a.588.588 0 0 0-.13-.045 1.837 1.837 0 0 0-.591-.051c0-.076.01-.165.012-.241.025-.872-.078-2.087-.909-1.573-.797.496-.228 1.323.286 1.854l.132.129c-.47.33-.559 1.112-.637 1.924-.077.812-.767 1.701-1.225 2.206-.046.051-.087.097-.129.14a1.666 1.666 0 0 0-1.331-.342 6.625 6.625 0 0 0-.061-.225c-.368-1.344-1.137-3.659-2.119-4.155l.129-.165c.416-.546.886-1.356.193-1.563-.693-.206-.755.703-.717 1.384 0 .085.013.166.019.242a1.003 1.003 0 0 0-.724.354l-.107-.126c-.562-.661-1.592-1.715-1.905-.919-.289.74.617 1.701 1.255 2.258l.04.035c-.429 1.739 1.441 3.156 2.448 3.776l.131.079c-1.389 1.637-2.247 4.704-2.247 4.704l3.89.694s2.578-2.225 2.247-4.313h.027c2.577-.516 3.162-3.264 2.762-4.896.015 0 .03-.011.045-.019a2.935 2.935 0 0 0 1.194-.901c.721-1.007-.791-2.138-1.531-1.155Z" opacity=".1"/><path fill="#00BAFC" d="m138.57 136.213-.455 1.323s-.253-.178-.572-.46c-.638-.557-1.544-1.517-1.255-2.258.313-.795 1.343.255 1.905.919.226.271.377.476.377.476ZM139.529 135.458a6.658 6.658 0 0 1-.443.521 6.848 6.848 0 0 1-.081-.7c-.038-.681.034-1.585.717-1.384.683.202.223 1.014-.193 1.563ZM145.393 135.665c-.013.438-.056.787-.056.787-.2-.153-.389-.32-.567-.498-.514-.534-1.083-1.357-.286-1.853.831-.523.934.696.909 1.564ZM148.08 136.238a2.926 2.926 0 0 1-1.194.901c-.13.058-.263.106-.4.146l-.536-.752c.057-.249.131-.493.222-.731.091-.253.218-.492.377-.71.741-.983 2.252.148 1.531 1.146Z"/><path fill="#000" d="M138.193 135.746c.226.262.377.467.377.467l-.455 1.323s-.253-.178-.572-.46a2.59 2.59 0 0 1 .513-1.168c.044-.053.092-.111.137-.162ZM139.529 135.458a6.658 6.658 0 0 1-.443.521 6.848 6.848 0 0 1-.081-.7.902.902 0 0 1 .524.179Z" opacity=".1"/><path fill="#00BAFC" d="m141.766 140.737-1.133.496s-.246-.119-.602-.339c-1.188-.732-3.577-2.573-1.975-4.742 1.602-2.169 2.938 1.721 3.463 3.624.161.571.247.961.247.961Z"/><path fill="#000" d="M144.77 135.954a.92.92 0 0 1 .623-.281c-.013.438-.056.787-.056.787-.2-.156-.39-.325-.567-.506ZM146.886 137.139c-.13.058-.263.106-.4.146l-.536-.752c.057-.249.131-.493.222-.731.345.203.6.704.714 1.337Z" opacity=".1"/><path fill="#00BAFC" d="m144.079 142.055-.19.033c-3.791.577-1.25-1.47-1.25-1.47s.165-.165.401-.413c.458-.505 1.146-1.389 1.226-2.206.119-1.228.256-2.381 1.706-2.042 1.423.328 1.691 5.378-1.893 6.098Z"/><path fill="#D4DFEC" d="M144.009 151.494h-7.243v1.904h7.243v-1.904Z"/><path fill="#D4DFEC" d="M145.079 145.303h-9.464v6.647h9.464v-6.647Z"/><path fill="#000" d="M144.009 151.494h-7.243v1.904h7.243v-1.904Z" opacity=".1"/><path fill="#000" d="M145.079 145.303h-9.464v6.647h9.464v-6.647Z" opacity=".1"/><path fill="#D4DFEC" d="M144.485 151.494h-7.243v1.904h7.243v-1.904Z"/><path fill="#000" d="M141.519 139.778c.166.569.247.959.247.959l-1.133.496s-.246-.119-.602-.339c.443-.56.943-.985 1.488-1.116ZM144.079 142.055l-.19.033c-3.791.577-1.25-1.47-1.25-1.47s.165-.165.401-.413c.708.567 1.001 1.205 1.039 1.85Z" opacity=".1"/><path fill="#00BAFC" d="M137.908 145.679s2.123-7.606 5.101-5.258c2.978 2.348-1.21 5.952-1.21 5.952l-3.891-.694Z"/><path fill="#000" d="M138.988 137.584a.238.238 0 1 0 0-.476.238.238 0 0 0 0 .476ZM138.968 138.695a.238.238 0 1 0 0-.476.238.238 0 0 0 0 .476ZM145.873 137.802a.238.238 0 1 0 0-.476.238.238 0 0 0 0 .476ZM140.317 143.498a.238.238 0 1 0 .002-.476.238.238 0 0 0-.002.476ZM145.377 139.647a.238.238 0 1 0 0-.476.238.238 0 0 0 0 .476ZM142.916 142.109a.238.238 0 1 0 .002-.476.238.238 0 0 0-.002.476ZM139.801 138.06a.238.238 0 1 0 .002-.476.238.238 0 0 0-.002.476ZM145.218 138.517a.239.239 0 0 0 0-.477.238.238 0 1 0 0 .477ZM144.404 140.362a.238.238 0 1 0 0-.476.238.238 0 0 0 0 .476ZM141.905 143.319a.238.238 0 1 0 0-.476.238.238 0 0 0 0 .476ZM141.389 142.149a.239.239 0 1 0-.001-.477.239.239 0 0 0 .001.477ZM140.159 139.509a.239.239 0 0 0 0-.477.238.238 0 1 0 0 .477ZM144.485 151.494h-7.243v.696h7.243v-.696Z" opacity=".1"/><path fill="#D4DFEC" d="M145.555 145.303h-9.464v6.647h9.464v-6.647Z"/><path fill="#000" d="M142.222 144.391a.238.238 0 1 0 0-.476.238.238 0 0 0 0 .476ZM140.793 144.688a.238.238 0 1 0 .002-.476.238.238 0 0 0-.002.476Z" opacity=".1"/></g><path fill="#000" d="M109.084 182.982h5.664v7.403c-.918.299-1.784.508-2.598.625a16.44 16.44 0 0 1-2.48.185c-2.155 0-3.802-.631-4.941-1.894-1.133-1.27-1.7-3.089-1.7-5.459 0-2.305.658-4.102 1.973-5.391 1.322-1.289 3.151-1.933 5.488-1.933 1.465 0 2.878.293 4.239.878l-1.006 2.422a7.197 7.197 0 0 0-3.252-.781c-1.309 0-2.357.44-3.145 1.318-.788.879-1.181 2.061-1.181 3.545 0 1.55.315 2.735.947 3.555.638.814 1.562 1.221 2.773 1.221.632 0 1.273-.065 1.924-.196v-2.978h-2.705v-2.52Zm14.932-3.105c.403 0 .739.029 1.005.088l-.224 2.793a3.417 3.417 0 0 0-.879-.098c-.951 0-1.693.244-2.227.733-.527.488-.791 1.171-.791 2.05V191h-2.978v-10.918h2.256l.439 1.836h.147a4.073 4.073 0 0 1 1.367-1.475 3.39 3.39 0 0 1 1.885-.566ZM133.938 191l-.577-1.484h-.078c-.501.631-1.019 1.071-1.553 1.318-.527.241-1.217.361-2.07.361-1.048 0-1.875-.299-2.48-.898-.599-.599-.899-1.452-.899-2.559 0-1.159.404-2.011 1.211-2.558.814-.554 2.038-.86 3.672-.918l1.895-.059v-.478c0-1.107-.567-1.661-1.7-1.661-.872 0-1.897.264-3.076.791l-.986-2.011c1.256-.658 2.65-.987 4.18-.987 1.464 0 2.587.319 3.369.957.781.638 1.172 1.609 1.172 2.911V191h-2.08Zm-.879-5.059-1.153.039c-.866.027-1.51.183-1.933.469-.424.287-.635.723-.635 1.309 0 .84.482 1.26 1.445 1.26.69 0 1.24-.199 1.651-.596.416-.397.625-.925.625-1.582v-.899Zm12.07-3.623h-2.578V191h-2.979v-8.682h-1.64v-1.435l1.64-.801v-.801c0-1.243.306-2.151.918-2.724.612-.573 1.592-.86 2.94-.86 1.028 0 1.943.153 2.744.459l-.762 2.188c-.599-.189-1.152-.283-1.66-.283-.423 0-.729.127-.918.38-.189.248-.283.567-.283.957v.684h2.578v2.236Zm1.582-5.058c0-.97.54-1.455 1.621-1.455s1.621.485 1.621 1.455c0 .462-.137.823-.41 1.084-.267.254-.671.381-1.211.381-1.081 0-1.621-.489-1.621-1.465Zm3.105 13.74h-2.978v-10.918h2.978V191Zm5.987-5.938 1.299-1.66 3.056-3.32h3.36l-4.336 4.736 4.599 6.182h-3.437l-3.145-4.424-1.279 1.026V191h-2.979v-15.195h2.979v6.777l-.156 2.48h.039Zm18.193 6.133c-1.282 0-2.292-.498-3.027-1.494-.729-.996-1.094-2.376-1.094-4.14 0-1.791.371-3.184 1.113-4.18.749-1.003 1.778-1.504 3.086-1.504 1.374 0 2.422.534 3.145 1.602h.097a12.244 12.244 0 0 1-.224-2.178v-3.496h2.988V191h-2.285l-.576-1.416h-.127c-.677 1.074-1.709 1.611-3.096 1.611Zm1.045-2.373c.762 0 1.318-.221 1.67-.664.358-.443.553-1.194.586-2.256v-.322c0-1.172-.182-2.012-.547-2.519-.358-.508-.944-.762-1.758-.762-.664 0-1.181.283-1.553.849-.364.56-.546 1.377-.546 2.452 0 1.074.185 1.881.556 2.421.371.534.902.801 1.592.801Zm8.027-11.562c0-.97.541-1.455 1.621-1.455 1.081 0 1.622.485 1.622 1.455 0 .462-.137.823-.411 1.084-.267.254-.67.381-1.211.381-1.08 0-1.621-.489-1.621-1.465Zm3.106 13.74h-2.979v-10.918h2.979V191Zm10.732 0h-8.623v-1.758l5.059-6.885h-4.756v-2.275h8.144v1.934l-4.921 6.709h5.097V191Zm9.102 0-.576-1.484h-.078c-.502.631-1.019 1.071-1.553 1.318-.528.241-1.218.361-2.071.361-1.048 0-1.875-.299-2.48-.898-.599-.599-.898-1.452-.898-2.559 0-1.159.403-2.011 1.21-2.558.814-.554 2.038-.86 3.672-.918l1.895-.059v-.478c0-1.107-.567-1.661-1.699-1.661-.873 0-1.898.264-3.076.791l-.987-2.011c1.257-.658 2.65-.987 4.18-.987 1.465 0 2.588.319 3.369.957.781.638 1.172 1.609 1.172 2.911V191h-2.08Zm-.879-5.059-1.152.039c-.866.027-1.511.183-1.934.469-.423.287-.635.723-.635 1.309 0 .84.482 1.26 1.446 1.26.69 0 1.24-.199 1.65-.596.417-.397.625-.925.625-1.582v-.899Zm4.473-5.859h3.261l2.061 6.143c.176.533.296 1.165.361 1.894h.059a8.3 8.3 0 0 1 .42-1.894l2.021-6.143h3.194l-4.62 12.314c-.423 1.14-1.028 1.993-1.816 2.559-.781.566-1.696.85-2.744.85a6.961 6.961 0 0 1-1.514-.166v-2.364c.358.085.749.127 1.172.127.527 0 .986-.162 1.377-.488.397-.319.706-.804.928-1.455l.176-.537-4.336-10.84ZM232.629 191h-2.979v-6.377c0-.788-.14-1.377-.42-1.768-.279-.397-.725-.595-1.337-.595-.834 0-1.436.28-1.807.84-.371.553-.557 1.474-.557 2.763V191h-2.978v-10.918h2.275l.401 1.397h.166a3.116 3.116 0 0 1 1.367-1.192c.586-.273 1.25-.41 1.992-.41 1.269 0 2.233.345 2.891 1.035.657.684.986 1.673.986 2.969V191ZM123.422 230h-1.297v-12.156h1.297V230Zm10.14-4.289c0 1.396-.351 2.487-1.054 3.273-.703.782-1.675 1.172-2.914 1.172-.766 0-1.446-.179-2.039-.539-.594-.359-1.052-.875-1.375-1.547-.323-.672-.485-1.458-.485-2.359 0-1.396.349-2.482 1.047-3.258.698-.781 1.667-1.172 2.906-1.172 1.198 0 2.149.399 2.852 1.196.708.796 1.062 1.875 1.062 3.234Zm-6.523 0c0 1.094.219 1.927.656 2.5.438.573 1.081.859 1.93.859s1.492-.284 1.93-.851c.442-.573.664-1.409.664-2.508 0-1.089-.222-1.914-.664-2.477-.438-.567-1.086-.851-1.946-.851-.849 0-1.489.278-1.921.836-.433.557-.649 1.388-.649 2.492Zm12.711-4.43c.38 0 .721.031 1.023.094l-.179 1.203a4.426 4.426 0 0 0-.938-.117c-.692 0-1.286.281-1.781.844-.49.562-.734 1.263-.734 2.101V230h-1.297v-8.562h1.07l.148 1.585h.063c.318-.557.701-.987 1.148-1.289a2.588 2.588 0 0 1 1.477-.453Zm6.242 8.875c-1.265 0-2.265-.385-3-1.156-.729-.771-1.094-1.841-1.094-3.211 0-1.38.339-2.477 1.016-3.289.682-.812 1.596-1.219 2.742-1.219 1.073 0 1.922.354 2.547 1.063.625.703.938 1.633.938 2.789v.82h-5.899c.026 1.005.279 1.768.758 2.289.484.521 1.164.781 2.039.781.922 0 1.833-.192 2.734-.578v1.157a6.66 6.66 0 0 1-1.304.421c-.407.089-.899.133-1.477.133Zm-.351-7.789c-.688 0-1.237.224-1.649.672-.406.448-.646 1.068-.719 1.859h4.477c0-.817-.182-1.442-.547-1.875-.364-.437-.885-.656-1.562-.656ZM162.273 230v-5.57c0-.683-.145-1.193-.437-1.532-.292-.343-.745-.515-1.359-.515-.808 0-1.404.232-1.789.695-.386.464-.579 1.177-.579 2.141V230h-1.297v-5.57c0-.683-.145-1.193-.437-1.532-.292-.343-.747-.515-1.367-.515-.813 0-1.409.245-1.789.734-.375.485-.563 1.281-.563 2.391V230h-1.297v-8.562h1.055l.211 1.171h.063a2.548 2.548 0 0 1 1.031-.976 3.179 3.179 0 0 1 1.5-.352c1.338 0 2.213.485 2.625 1.453h.062a2.723 2.723 0 0 1 1.11-1.062c.484-.261 1.036-.391 1.656-.391.969 0 1.693.25 2.172.75.484.495.726 1.289.726 2.383V230h-1.297Zm9.43 0h-1.297v-8.562h1.297V230Zm-1.406-10.883c0-.297.073-.513.219-.648a.753.753 0 0 1 .546-.211c.209 0 .389.07.54.211.151.14.226.357.226.648 0 .292-.075.511-.226.656a.764.764 0 0 1-.54.211.753.753 0 0 1-.546-.211c-.146-.145-.219-.364-.219-.656Zm8.141 11.039a3.779 3.779 0 0 1-1.532-.304 2.908 2.908 0 0 1-1.156-.954h-.094c.063.5.094.974.094 1.422v3.524h-1.297v-12.406h1.055l.18 1.171h.062c.333-.468.721-.807 1.164-1.015.443-.209.951-.313 1.524-.313 1.135 0 2.01.388 2.624 1.164.62.776.93 1.865.93 3.266 0 1.406-.315 2.5-.945 3.281-.625.776-1.495 1.164-2.609 1.164Zm-.188-7.773c-.875 0-1.508.242-1.898.726-.391.485-.592 1.256-.602 2.313v.289c0 1.203.201 2.065.602 2.586.401.515 1.044.773 1.929.773.74 0 1.318-.299 1.735-.898.422-.599.632-1.425.632-2.477 0-1.067-.21-1.885-.632-2.453-.417-.573-1.006-.859-1.766-.859Zm11.539 5.281c0 .797-.297 1.412-.891 1.844-.593.432-1.427.648-2.5.648-1.135 0-2.02-.179-2.656-.539v-1.203c.412.208.852.372 1.32.492.474.12.93.18 1.368.18.677 0 1.198-.107 1.562-.32.365-.219.547-.55.547-.993 0-.333-.146-.617-.437-.851-.287-.24-.849-.521-1.688-.844-.797-.297-1.365-.555-1.703-.773a2.42 2.42 0 0 1-.75-.758c-.162-.281-.242-.617-.242-1.008 0-.698.284-1.247.851-1.648.568-.407 1.347-.61 2.336-.61.922 0 1.823.188 2.703.563l-.461 1.054c-.859-.354-1.638-.531-2.336-.531-.614 0-1.078.097-1.39.289-.313.193-.469.459-.469.797 0 .229.057.425.172.586.12.162.31.315.57.461.261.146.761.357 1.5.633 1.016.37 1.701.742 2.055 1.117.359.375.539.846.539 1.414Zm3.336-6.226v5.554c0 .698.159 1.219.477 1.563.317.343.815.515 1.492.515.896 0 1.549-.244 1.961-.734.416-.49.625-1.289.625-2.398v-4.5h1.297V230h-1.071l-.187-1.148h-.071a2.58 2.58 0 0 1-1.109.968c-.469.224-1.005.336-1.609.336-1.042 0-1.823-.247-2.344-.742-.516-.495-.774-1.286-.774-2.375v-5.601h1.313ZM212.648 230v-5.57c0-.683-.145-1.193-.437-1.532-.292-.343-.745-.515-1.359-.515-.808 0-1.404.232-1.79.695-.385.464-.578 1.177-.578 2.141V230h-1.296v-5.57c0-.683-.146-1.193-.438-1.532-.292-.343-.747-.515-1.367-.515-.813 0-1.409.245-1.789.734-.375.485-.563 1.281-.563 2.391V230h-1.297v-8.562h1.055l.211 1.171h.062a2.557 2.557 0 0 1 1.032-.976 3.179 3.179 0 0 1 1.5-.352c1.338 0 2.213.485 2.625 1.453h.062a2.723 2.723 0 0 1 1.11-1.062c.484-.261 1.036-.391 1.656-.391.969 0 1.693.25 2.172.75.484.495.726 1.289.726 2.383V230h-1.297Z"/></g><defs><linearGradient id="c" x1="117.341" x2="117.341" y1="151.93" y2="63.764" gradientUnits="userSpaceOnUse"><stop stop-color="gray" stop-opacity=".25"/><stop offset=".54" stop-color="gray" stop-opacity=".12"/><stop offset="1" stop-color="gray" stop-opacity=".1"/></linearGradient><linearGradient id="d" x1="39302.3" x2="39302.3" y1="54964.5" y2="6151.73" gradientUnits="userSpaceOnUse"><stop stop-color="gray" stop-opacity=".25"/><stop offset=".54" stop-color="gray" stop-opacity=".12"/><stop offset="1" stop-color="gray" stop-opacity=".1"/></linearGradient><clipPath id="b"><path fill="#fff" d="M78.546 24h178.909v130H78.544z"/></clipPath><filter id="a" width="336" height="276" x="0" y="0" color-interpolation-filters="sRGB" filterUnits="userSpaceOnUse"><feFlood flood-opacity="0" result="BackgroundImageFix"/><feColorMatrix in="SourceAlpha" result="hardAlpha" values="0 0 0 0 0 0 0 0 0 0 0 0 0 0 0 0 0 0 127 0"/><feOffset dy="8"/><feGaussianBlur stdDeviation="4"/><feColorMatrix values="0 0 0 0 0 0 0 0 0 0 0 0 0 0 0 0 0 0 0.1 0"/><feBlend in2="BackgroundImageFix" result="effect1_dropShadow_13_1503"/><feBlend in="SourceGraphic" in2="effect1_dropShadow_13_1503" result="shape"/></filter></defs></svg>