<svg xmlns="http://www.w3.org/2000/svg" width="336" height="276" fill="none"><g filter="url(#a)"><rect width="320" height="260" x="8" fill="#fff" rx="5"/><g clip-path="url(#b)"><path fill="url(#c)" d="M257.138 135.268c-.366-1.513-1.57-2.652-2.456-3.933a10.65 10.65 0 0 1-.655-10.808c.853-1.621 2.189-3.298 1.705-5.069-.324-1.191-1.4-2.007-2.457-2.646a24.036 24.036 0 0 0-13.331-3.428c-5.739.234-11.46 2.527-17.089 1.391-5.482-1.11-10.126-3.858-15.862-4.184-4.284-.243-8.522.03-12.815-.439a189.977 189.977 0 0 0-31.943-.763 189.965 189.965 0 0 0-31.942.763c-4.282.469-8.522.196-12.815.439-5.752.324-10.386 3.076-15.87 4.184-5.631 1.138-11.35-1.157-17.09-1.391a24.037 24.037 0 0 0-13.33 3.428c-1.066.639-2.131 1.455-2.457 2.646-.481 1.769.852 3.445 1.705 5.069a10.653 10.653 0 0 1-.65 10.808c-.887 1.279-2.09 2.42-2.457 3.933-.737 3.043 2.22 5.723 5.114 6.931 7.893 3.3 17.493 1.704 24.714 6.3 3.236 2.062 6.068 5.373 9.903 5.497 2.593.083 4.951-1.357 7.216-2.625a69.24 69.24 0 0 1 10.591-4.809c3.196-1.137 6.581-2.049 9.954-1.672 5.149.569 27.409 11.324 37.444 4.968 6.873-4.357 12.234-4.393 17.396-4.97 3.373-.377 6.756.534 9.954 1.672a69.144 69.144 0 0 1 10.591 4.809c2.263 1.267 4.624 2.708 7.216 2.625 3.835-.124 6.667-3.435 9.903-5.497 7.216-4.598 16.815-3 24.715-6.3 2.878-1.213 5.837-3.884 5.098-6.929Z" opacity=".5"/><path fill="#00BAFC" d="M256.094 135.206c-.362-1.491-1.553-2.624-2.429-3.89a10.543 10.543 0 0 1-.639-10.689c.852-1.604 2.165-3.262 1.688-5.011-.322-1.178-1.385-1.986-2.429-2.616a23.768 23.768 0 0 0-13.184-3.392c-5.676.23-11.333 2.499-16.902 1.374-5.424-1.095-10.013-3.818-15.696-4.14-4.237-.238-8.437.03-12.672-.426a187.92 187.92 0 0 0-31.592-.754 187.92 187.92 0 0 0-31.592.754c-4.235.465-8.435.194-12.672.426-5.68.32-10.272 3.043-15.696 4.14-5.567 1.125-11.226-1.144-16.902-1.374-4.631-.179-9.214 1-13.184 3.392-1.044.639-2.107 1.438-2.429 2.616-.477 1.749.853 3.409 1.688 5.011a10.544 10.544 0 0 1-.64 10.689c-.877 1.266-2.066 2.393-2.428 3.89-.748 3.009 2.177 5.659 5.034 6.844 7.809 3.262 17.302 1.683 24.438 6.229 3.196 2.039 6.002 5.316 9.8 5.438 2.557.083 4.901-1.343 7.138-2.598a68.406 68.406 0 0 1 10.476-4.757c3.163-1.127 6.508-2.028 9.845-1.655 5.113.57 27.122 11.2 37.037 4.915 6.799-4.308 12.1-4.345 17.205-4.915 3.336-.373 6.683.528 9.845 1.655a68.45 68.45 0 0 1 10.476 4.757c2.239 1.253 4.572 2.679 7.137 2.598 3.793-.122 6.594-3.396 9.801-5.438 7.137-4.546 16.631-2.967 24.437-6.229 2.847-1.185 5.772-3.835 5.041-6.844Z"/><path fill="#00BAFC" d="M74.047 70.706c.61-.213 1.257-.416 1.894-.305 1.065.186 1.813 1.196 2.13 2.233.318 1.038.307 2.13.51 3.196.202 1.065.686 2.167 1.64 2.676.955.51 2.082.309 3.14.185 1.39-.16 2.791-.173 4.183-.038 1.167.113 2.54.507 2.883 1.63.28.916-.277 1.851-.64 2.736-.694 1.653-.75 3.606.045 5.213.795 1.606 2.406 2.804 3.079 4.5.195.424.251.899.162 1.357-.1.32-.264.618-.482.873-.528.68-1.159 1.279-1.64 1.995-1.004 1.49-1.279 3.345-1.394 5.136a37.449 37.449 0 0 0 .03 5.29c-1.308-.426-2.753-.046-4.101-.326-2.87-.592-4.662-3.988-7.585-4.195-1.383-.098-2.87.554-4.103-.078a3.1 3.1 0 0 1-1.313-1.492 5.292 5.292 0 0 1-.337-3.558c.214-.822.64-1.628.557-2.473-.07-.725-.505-1.364-1.004-1.894-1.421-1.509-3.483-2.431-4.504-4.236a4.826 4.826 0 0 1 .573-5.43c.365-.356.71-.731 1.034-1.124.49-.69.639-1.561.705-2.407.14-2.026-.213-4.172.45-6.14.594-1.781 2.409-2.727 4.088-3.324Z" opacity=".6"/><path stroke="#535461" stroke-miterlimit="10" d="M74.077 70.766s5.818 32.314 13.373 36.168" opacity=".6"/><path stroke="#535461" stroke-miterlimit="10" d="M90.265 79.71s-6.232.852-12.458 7.254M78.902 90.718s-4.796-4.687-12.289-3.892M93.009 92.757s-8.753.744-11.993 4.104M82.326 99.99s-4.9-.852-9.423 2.035" opacity=".6"/><path fill="#00BAFC" d="M254.183 45.323c-.978-.348-2.015-.665-3.036-.488-1.704.298-2.906 1.917-3.409 3.577-.503 1.66-.492 3.43-.816 5.135-.324 1.704-1.099 3.47-2.629 4.288-1.53.819-3.336.495-5.034.299a31.797 31.797 0 0 0-6.699-.07c-1.873.18-4.069.813-4.619 2.611-.449 1.47.443 2.966 1.04 4.383 1.114 2.648 1.204 5.782-.073 8.358-1.297 2.62-3.856 4.496-4.934 7.212-.273.69-.445 1.455-.26 2.173.16.515.423.992.773 1.402.853 1.09 1.858 2.052 2.63 3.196 1.608 2.386 2.045 5.36 2.232 8.232a59.967 59.967 0 0 1-.047 8.478c2.097-.69 4.415-.075 6.575-.52 4.6-.948 7.472-6.392 12.157-6.724 2.216-.156 4.6.886 6.577-.128.963-.494 1.647-1.417 2.105-2.399a8.49 8.49 0 0 0 .51-5.688c-.348-1.32-1.023-2.608-.891-3.965.113-1.162.807-2.186 1.609-3.034 2.277-2.418 5.584-3.897 7.22-6.788 1.534-2.71 1.146-6.377-.918-8.706-.541-.611-1.185-1.135-1.658-1.8-.786-1.106-1.037-2.503-1.131-3.858-.224-3.25.328-6.686-.722-9.842-.959-2.871-3.867-4.39-6.552-5.334Z" opacity=".6"/><path stroke="#535461" stroke-miterlimit="10" d="M254.128 45.408s-9.326 51.796-21.438 57.972" opacity=".6"/><path stroke="#535461" stroke-miterlimit="10" d="M228.18 59.744s9.988 1.372 19.967 11.631M246.392 77.39s7.689-7.52 19.697-6.24M223.793 80.658s14.027 1.19 19.222 6.579M240.905 92.252s7.86-1.376 15.106 3.26" opacity=".6"/><path fill="url(#d)" d="M82.563 24v105.505h154.876V24H82.563Z"/><path fill="#fff" d="M235.798 28.787H84.859v98.809h150.939V28.787Z"/><path fill="#EEE" d="M235.798 24.087H84.859v7.27h150.939v-7.27Z"/><path fill="#FF5252" d="M90.603 29.373a1.762 1.762 0 1 0 0-3.524 1.762 1.762 0 0 0 0 3.524Z"/><path fill="#FF0" d="M95.45 29.373a1.762 1.762 0 1 0 0-3.524 1.762 1.762 0 0 0 0 3.524Z"/><path fill="#69F0AE" d="M100.297 29.373a1.762 1.762 0 1 0 0-3.524 1.762 1.762 0 0 0 0 3.524Z"/><path fill="#00BAFC" d="M146.89 43H90.644v2.344h56.246V43ZM146.89 47.688H90.644v2.343h56.246v-2.343ZM146.89 52.375H90.644v2.343h56.246v-2.343ZM146.891 57.062h-36.859v2.344h36.859v-2.344ZM120.259 61.75H90.644v2.343h29.615v-2.344ZM129.42 66.436h-22.797v2.344h22.797v-2.344ZM220.608 59.406h-66.261v38.136h66.261V59.406Z" opacity=".5"/><path fill="#EEE" d="M228.491 63.028H162.23v38.136h66.261V63.028Z"/><path fill="url(#e)" d="M268.328 98.211a1.01 1.01 0 0 0 .213-.615v-.017c0-.005.013-.045.019-.066v-.028a.637.637 0 0 0 0-.062v-.025a.491.491 0 0 0 0-.077c-.126-.852-5.19-6.405-6.456-13.178-.14-.737-.349-1.46-.624-2.158.039-.35.016-.703-.068-1.044-.213-.867-.639-1.747-.426-2.612.03-.113.069-.223.117-.33.266-.39.51-.795.731-1.212.082-.136.154-.279.213-.427.778-2.05-1.63-4.165-1.187-6.304.192-.927.91-1.736.891-2.68-.024-1.08-1.017-1.918-2.048-2.318-1.031-.4-2.166-.516-3.178-.963-2.218-.982-3.433-3.354-5.457-4.672-2.571-1.673-5.927-1.375-9.01-.942a.624.624 0 0 0-.473.35h-.03a2.14 2.14 0 0 1-.081.2c-.426.726-1.144 1.278-1.853 1.787-.865.61-1.792 1.21-2.32 2.114a4.653 4.653 0 0 0-.203.385c-1.15 2.052.232 2.938 1.918 3.43a5.19 5.19 0 0 0-.077.889c0 2.983 2.495 5.418 5.569 5.418.243 0 .486-.016.727-.047l.179.117h.04c.571.411 1.065.927 1.278 1.54l-1.785 1.364s.073.188.179.486l-7.018 3.234c-2.659.124-6.963-8.252-6.963-8.252s-.639-4.802-2.912-5.665c-.686-.26-.959.284-1.006 1.17-1.016 1.065.691 7.048.691 7.048l5.443 9.606c.507.985.639 1.6 3.038 1.971 1.975.303 8.128-1.883 10.27-2.676l.1.852a4.995 4.995 0 0 0-.324 2.04c0 1.57.701 3.854 4.122 5.673 0 0 3.533 4.566 3.141 8.876 0 0 .17.179.443.413-.038 1.215-.213 2.713-.824 3.296a.324.324 0 0 0-.096.303.307.307 0 0 0 .149.33l-4.459 7.809c-.167.213-.335.426-.508.639a22.78 22.78 0 0 1-2.746 2.929c-.743.663-1.517 1.387-1.67 1.658-.237.426-.831 1.8-.58 2.936.326 1.377.459 2.792.397 4.205l-.578 10.101a26.14 26.14 0 0 1-.799 3.335h-.087s-2.152 2.586-5.569 3.195c-3.418.61-3.292 2.344-2.28 2.587 1.012.243 13.292-.247 13.292-.247s.465-.906.337-1.732c3.92-.377 9.351-1.017 9.351-1.017s.744-1.787-.336-2.567a2.522 2.522 0 0 1-.866-1.229 43.779 43.779 0 0 1-.202-.91c-.017-.16-.017-.258-.017-.258h-.036c-.19-.952-.341-1.973-.254-2.507.318-1.417 1.14-9.607-.886-11.946-.92-1.066-.795-2.276-.386-3.286 2.431-1.591 5.832-5.015 7.798-7.086.111.092.213.183.309.275l.064.062s6.692-3.313 6.72-9.162a9.027 9.027 0 0 0-1.061-4.306Zm-21.436 41.256a3.414 3.414 0 0 1 .024-.639l-.213-.023c.123-.929.426-1.969 1.103-2.687a22.817 22.817 0 0 0 2.438-6.749l1.229 4.651s.124.963.158 1.981h-.022s-1.715 2.448-4.717 3.466Z" opacity=".5"/><path fill="#FDB797" d="M252.449 79.228s-3.006 1.083-4.687 2.887c0 0-8.18 3.247-10.466 2.887-2.286-.36-2.405-.963-2.887-1.917l-5.173-9.375s-2.164-7.82 0-6.977c2.165.841 2.77 5.539 2.77 5.539s4.091 8.18 6.615 8.06l6.85-3.264s1.564-2.286 2.286-2.165c.723.122 4.692 4.325 4.692 4.325Z"/><path fill="#000" d="M252.449 79.228s-3.006 1.083-4.687 2.887c0 0-8.18 3.247-10.466 2.887-2.286-.36-2.405-.963-2.887-1.917l-5.173-9.375s-2.164-7.82 0-6.977c2.165.841 2.77 5.539 2.77 5.539s4.091 8.18 6.615 8.06l6.85-3.264s1.564-2.286 2.286-2.165c.723.122 4.692 4.325 4.692 4.325Z" opacity=".05"/><path fill="#F9CE43" d="m247.51 74.794-2.399 1.884s1.2 3.138.899 4.238c-.3 1.099 4.798-1.726 4.798-1.726l-2.098-4.709-1.2.314Z"/><path fill="#000" d="m247.51 74.794-2.399 1.884s1.2 3.138.899 4.238c-.3 1.099 4.798-1.726 4.798-1.726l-2.098-4.709-1.2.314Z" opacity=".05"/><path fill="#FDB797" d="M243.368 72.698s5.352 1.745 2.887 4.81l7.698-3.728s-3.247.241-5.292-4.687l-5.293 3.605ZM253.471 104.094l-6.615 11.908 4.453 17.312s.481 3.85-.241 4.21h5.052s-.974-3.408-.723-4.57c.301-1.382 1.083-9.374-.852-11.667-1.934-2.292.963-5.292.963-5.292l5.774-9.142-7.811-2.759Z"/><path fill="#000" d="m253.471 104.094-6.615 11.908 4.453 17.312s.481 3.85-.241 4.21h5.052s-.902-3.428-.723-4.57c.179-1.142 1.083-9.374-.852-11.667-1.934-2.292.963-5.292.963-5.292l5.774-9.142-7.811-2.759Z" opacity=".05"/><path fill="#0D134D" d="M251.437 135.258s-1.833 2.699-5.028 3.555c-3.196.857-2.936 2.527-1.958 2.689.978.162 12.57-1.242 12.57-1.242s.705-1.745-.32-2.508c-1.024-.762-1.031-2.343-1.031-2.343l-4.233-.151Z"/><path fill="#000" d="M253.834 99.281s.285 3.912-.757 4.939a.318.318 0 0 0-.097.269.318.318 0 0 0 .161.238l3.098 1.651 2.77-5.292-5.175-1.805Z" opacity=".1"/><path fill="#E23553" d="M253.834 99.162s.285 3.911-.757 4.938a.326.326 0 0 0-.081.123.307.307 0 0 0-.016.147.31.31 0 0 0 .161.237l3.098 1.652 2.77-5.293-5.175-1.804Z"/><path fill="#000" d="M253.834 99.375s.285 3.911-.757 4.938a.322.322 0 0 0-.097.27.31.31 0 0 0 .161.237l3.098 1.652 2.77-5.293-5.175-1.804Z" opacity=".1"/><path fill="#FDB797" d="M253.953 106.859s-1.788 1.193-5.54 6.104a22.044 22.044 0 0 1-2.609 2.862c-.706.639-1.441 1.355-1.588 1.619-.226.407-.79 1.76-.549 2.868.309 1.346.436 2.727.377 4.107l-.548 9.867s-.722 4.451-1.683 4.932l4.932.852s-.36-3.127 1.083-4.687c0 0 3.368-5.774 2.526-12.27 0 0-.36-2.887 2.887-4.45 3.247-1.564 9.865-9.143 9.865-9.143l-9.153-2.661Z"/><path fill="#0D134D" d="M242.646 137.533s-2.045 2.527-5.292 3.128c-3.247.6-3.128 2.286-2.165 2.526.963.241 12.63-.24 12.63-.24s.852-1.683-.119-2.527c-.972-.844-.722-2.406-.722-2.406l-4.332-.481Z"/><path fill="#000" d="M256.961 100.485s-1.468 4.93-3.328 6.366a.237.237 0 0 0-.077.1.236.236 0 0 0 .139.315c1.538.561 6.481 2.448 8.199 4.166l.059.059s10.284-5.232 4.751-14.134l-9.743 3.128Z" opacity=".1"/><path fill="#E23553" d="M256.961 100.365s-1.468 4.931-3.328 6.367a.231.231 0 0 0-.077.1.236.236 0 0 0 .139.315c1.538.56 6.481 2.448 8.199 4.165l.059.06s10.284-5.233 4.751-14.134l-9.743 3.127Z"/><path fill="#000" d="M248.516 75.92c-.764.514-1.6.913-2.48 1.184l.826 7.357s-1.932 4.325 3.595 7.346c0 0 3.355 4.46 2.983 8.669 0 0 1.8 1.931 3.004 1.451 1.203-.479.119.241.36.122.24-.12.72.965 4.45.01 3.731-.954 6.392-3.47 6.266-4.314-.125-.844-4.915-6.268-6.102-12.888-1.186-6.62-8.27-11.328-8.27-11.328s-.235.13-.64.303a28.003 28.003 0 0 0-3.992 2.088Z" opacity=".1"/><g fill="#000" opacity=".1"><path d="M253.54 106.896a.233.233 0 0 0 .155.24c1.325.484 5.177 1.952 7.317 3.448-1.852-1.496-5.791-3.049-7.472-3.688ZM266.704 97.238l-.213.072c4.728 8.265-4.176 13.257-4.953 13.672.134.111.255.213.366.33l.06.06s10.273-5.233 4.74-14.134Z" opacity=".1"/></g><path fill="#F9CE43" d="M261.291 101.808c-3.729.963-4.21-.119-4.451 0-.241.119.852-.601-.36-.119-1.213.481-3.006-1.445-3.006-1.445.017-.213.025-.411.025-.618.013-4.022-3.042-8.043-3.042-8.043-5.54-3.006-3.609-7.337-3.609-7.337l-.226-1.973-.62-5.382a9.387 9.387 0 0 0 2.475-1.189 28.162 28.162 0 0 1 3.987-2.096c.407-.175.639-.305.639-.305s7.097 4.687 8.309 11.307c1.212 6.62 6.015 12.029 6.134 12.87.119.842-2.527 3.367-6.255 4.33Z"/><path fill="#000" d="m248.78 69.21-5.292 3.61a9.007 9.007 0 0 1 2.064 1.029c1.803-.254 2.906-1.545 3.65-3.135-.29-.464-.162-.88-.422-1.504Z" opacity=".1"/><path fill="#FDB797" d="M244.691 73.782a5.293 5.293 0 1 0 0-10.585 5.293 5.293 0 0 0 0 10.585Z"/><path fill="#000" d="M262.132 101.207c-3.728.963-4.21-.119-4.451 0-.24.119.853-.601-.36-.119-1.212.481-3.006-1.445-3.006-1.445a7.63 7.63 0 0 0 .026-.618c.015-4.016-3.034-8.043-3.034-8.043-5.54-3.006-3.609-7.337-3.609-7.337l-.224-1.975-.586-5.094a5.814 5.814 0 0 1-.876.313l.61 5.384.228 1.973s-1.918 4.331 3.609 7.337c0 0 3.049 4.027 3.034 8.043 0 .213 0 .411-.026.618 0 0 1.805 1.918 3.006 1.445 1.202-.473.12.24.36.119.241-.122.723.963 4.451 0a12.921 12.921 0 0 0 4.66-2.282 13.123 13.123 0 0 1-3.812 1.681Z" opacity=".1"/><path fill="#FDB797" d="M252.148 80.276s-3.006 1.083-4.687 2.887c0 0-8.179 3.247-10.465 2.887-2.286-.36-2.406-.963-2.887-1.917l-5.173-9.375s-2.165-7.819 0-6.977c2.165.841 2.77 5.54 2.77 5.54s4.09 8.178 6.615 8.06l6.852-3.27s1.564-2.285 2.286-2.164c.722.122 4.689 4.33 4.689 4.33Z"/><path fill="#000" d="M248.088 75.873s-2.495-.228-3.218 2.9c-.722 3.127 5.54 5.05 5.54 5.05l3.368-4.686-5.69-3.264Z" opacity=".1"/><path fill="#F9CE43" d="M248.209 75.873s-2.495-.228-3.217 2.9c-.722 3.127 5.539 5.05 5.539 5.05l3.369-4.686-5.691-3.264Z"/><g fill="#000" opacity=".1"><path d="M247.19 76.429a6.42 6.42 0 0 1-1.18.456l.021.18c.398-.19.785-.404 1.159-.636ZM267.546 97.479c-.119-.853-4.932-6.256-6.134-12.871S253.103 73.3 253.103 73.3s-.235.13-.639.305a28.83 28.83 0 0 0-3.149 1.587 28.569 28.569 0 0 1 2.066-.984c.407-.175.64-.305.64-.305s7.096 4.687 8.309 11.307c1.212 6.62 6.014 12.029 6.134 12.87.076.531-.949 1.73-2.651 2.787 2.337-1.16 3.824-2.754 3.733-3.39Z" opacity=".1"/></g><path stroke="#000" stroke-miterlimit="10" d="M249.639 75.922s3.11 1.54 3.696 4.501" opacity=".1"/><path fill="#000" d="M242.033 68.192c.496.11 1.05.266 1.295.712.177.323.145.73.317 1.065.443.835 1.743.547 2.557 1.037 1.491.9.518 3.703 2.003 4.607.279.17.609.238.897.394 1.255.686 1.078 2.501.852 3.914-.226 1.412.043 3.345 1.459 3.545.78.109 1.656-.407 2.312.025.343.226.499.64.786.94a1.435 1.435 0 0 0 1.538.318c.482-.2.829-.659 1.33-.806.805-.236 1.704.416 2.48.115.775-.3.952-1.42.752-2.267-.2-.846-.609-1.704-.396-2.556.176-.704.752-1.24 1.003-1.918.737-2-1.549-4.067-1.127-6.157.183-.906.865-1.705.852-2.619-.021-1.065-.965-1.872-1.947-2.264-.982-.392-2.06-.503-3.021-.94-2.107-.959-3.26-3.277-5.186-4.564a7.272 7.272 0 0 0-2.853-1.095 9.35 9.35 0 0 0-7.444 2.024c-.189.154-.383.299-.579.44-.823.594-1.705 1.18-2.206 2.062-1.828 3.183 2.372 3.547 4.326 3.988Z" opacity=".1"/><path fill="#00BAFC" d="M242.182 67.891c.496.111 1.05.267 1.295.712.177.324.145.73.317 1.065.444.836 1.743.548 2.557 1.038 1.491.9.518 3.703 2.003 4.606.279.17.609.239.897.394 1.255.686 1.078 2.502.852 3.914-.226 1.413.043 3.345 1.459 3.545.78.11 1.656-.406 2.312.026.343.226.499.64.786.94a1.435 1.435 0 0 0 1.539.317c.481-.2.828-.658 1.329-.805.805-.237 1.704.415 2.48.115.775-.3.952-1.421.752-2.267-.2-.846-.609-1.705-.396-2.557.177-.703.752-1.24 1.003-1.917.737-2-1.549-4.067-1.127-6.158.183-.905.865-1.704.852-2.618-.021-1.065-.965-1.873-1.947-2.265-.982-.392-2.06-.503-3.021-.94-2.107-.958-3.26-3.276-5.186-4.563a7.13 7.13 0 0 0-2.578-1.044 9.362 9.362 0 0 0-7.725 1.977 8.966 8.966 0 0 1-.573.426c-.823.595-1.705 1.18-2.205 2.063-1.828 3.191 2.373 3.558 4.325 3.996ZM199.302 101.164H162.23v-6.986c9.057-4.233 22.993-6.61 37.072 6.986Z"/><path fill="#000" d="M228.065 100.165v.999h-46.233v-.213s22.75-22.151 46.233-.786Z" opacity=".1"/><path fill="#00BAFC" d="M228.491 100.165v.999h-46.233v-.213s22.75-22.151 46.233-.786ZM169.9 73.254a3.409 3.409 0 1 0 0-6.817 3.409 3.409 0 0 0 0 6.817Z"/><path fill="#F4F4F4" d="M198.923 67.267c-.39 0-.825 0-1.121.024a1.37 1.37 0 0 0-.388.079l-2.004.72c1.619.04 3.308.027 4.968.015l9.306-.073c.951 0 1.948-.017 2.738-.072.531-.039.92-.094 1.41-.137 1.762-.157 4.33-.127 6.624-.119 2.295.009 5.065-.051 5.872-.281h-4.926c-.53 0-1.088 0-1.557-.026-.548-.032-.882-.091-1.364-.134-.797-.068-1.896-.077-2.919-.08-5.614-.024-11.157.108-16.639.084ZM204.437 71.396h-.243a.295.295 0 0 0-.085.017l-.427.156h1.076l2.016-.015c.213 0 .426 0 .592-.015.115 0 .2-.021.305-.03.381-.034.937-.028 1.436-.025a7.83 7.83 0 0 0 1.278-.062h-1.402c-.1 0-.191-.02-.296-.03a8.28 8.28 0 0 0-.639-.017c-1.214 0-2.416.028-3.611.021ZM190.162 77.362h-.243a.292.292 0 0 0-.085.017l-.426.155h1.076l2.015-.015c.213 0 .426 0 .593-.014.115 0 .2-.022.304-.03.382-.034.938-.028 1.436-.026.427.014.855-.006 1.279-.062H194.709c-.101 0-.192-.019-.297-.03a8.277 8.277 0 0 0-.639-.016c-1.214 0-2.416.027-3.611.02Z"/><path fill="#00BAFC" d="M182.153 99.275h-1.602s-.501-17.522 1.602-22.93h.401s-1.402 19.825-.401 22.93Z"/><path fill="#00BAFC" d="M181.052 75.444s-1.302 3.605-.701 5.207c0 0 .901-3.304 1.951-3.805 1.051-.5 2.152 3.805 2.152 3.805s.601-2.703-.5-4.9c0 0 2.203 1.202 3.304 3.505 0 0 .2-1.492-2.403-4.606 0 0 2.303.6 3.805 2.002 0 0 .501-1.101-2.604-2.904 0 0 .401-1.301 2.804-.7 0 0 0-1.705-3.805-1.402 0 0 0-1.102 2.503-.902 0 0 0-1.402-2.903-.9 0 0 .6-.902 1.001-1.102a2.014 2.014 0 0 0-1.402.4s.1-1.802-1.402-2.503l-.2 2.503s-1.683-1.983-1.302-1.602c.1.1.401 1.302.3 1.903 0 0-1.704-1.402-3.805.1 0 0 2.604.2 3.004 1.101 0 0-2.203-.4-2.703-.1 0 0 1.704.6 1.602 1.001 0 0-3.004 0-3.409 1.102 0 0 3.104.4 3.304.7 0 0-3.604 2.604-3.805 3.305 0 0 3.705-2.203 4.306-2.203s-2.704 3.196-2.503 4.006c.008-.007 2.72-3.21 3.411-3.01ZM201.914 98.618h1.223s.384-13.386-1.223-17.517h-.307s1.074 15.142.307 17.517Z"/><path fill="#00BAFC" d="M202.756 80.413s.995 2.755.534 3.978c0 0-.688-2.525-1.491-2.907-.803-.38-1.645 2.907-1.645 2.907s-.458-2.065.384-3.748a6.65 6.65 0 0 0-2.525 2.678s-.153-1.148 1.837-3.52c0 0-1.76.458-2.906 1.53 0 0-.384-.841 1.99-2.218 0 0-.307-.995-2.142-.535 0 0 0-1.3 2.906-1.065 0 0 0-.842-1.917-.688 0 0 0-1.065 2.218-.688 0 0-.458-.688-.765-.842.381-.034.761.076 1.065.307 0 0-.077-1.376 1.065-1.918l.154 1.918s1.278-1.515.995-1.223a3.355 3.355 0 0 0-.23 1.453s1.299-1.065 2.906.077c0 0-1.99.153-2.295.841 0 0 1.683-.306 2.065-.076 0 0-1.3.458-1.223.764 0 0 2.294 0 2.601.842 0 0-2.371.307-2.525.535 0 0 2.755 1.99 2.907 2.525 0 0-2.83-1.684-3.29-1.684-.46 0 2.064 2.448 1.917 3.06.011-.009-2.053-2.452-2.59-2.303ZM216.557 96.002h.759s.236-8.29-.759-10.849h-.189s.662 9.385.189 10.85Z"/><path fill="#00BAFC" d="M217.079 84.727s.616 1.705.333 2.463c0 0-.426-1.564-.925-1.8-.498-.237-1.018 1.8-1.018 1.8s-.284-1.278.236-2.322a4.117 4.117 0 0 0-1.564 1.657s-.093-.711 1.138-2.18a4.8 4.8 0 0 0-1.8.949s-.237-.522 1.231-1.374c0 0-.189-.616-1.327-.333 0 0 0-.805 1.8-.662 0 0 0-.522-1.184-.426 0 0 0-.663 1.374-.426a2.088 2.088 0 0 0-.473-.522.954.954 0 0 1 .663.19s-.047-.853.662-1.186l.094 1.185s.797-.937.616-.758a2.062 2.062 0 0 0-.143.899 1.475 1.475 0 0 1 1.8.047s-1.231.093-1.421.522c0 0 1.042-.19 1.278-.047 0 0-.805.283-.758.473 0 0 1.421 0 1.611.522 0 0-1.468.19-1.564.332 0 0 1.704 1.231 1.8 1.564 0 0-1.753-1.042-2.037-1.042-.283 0 1.279 1.517 1.185 1.894.004.002-1.276-1.515-1.607-1.419Z"/><path fill="url(#f)" d="m188.86 86.628-.16-.853a.457.457 0 0 0-.144-.334l-.74-.362a.849.849 0 0 1-.132-.213l.013-.02c.041-.05.07-.109.085-.172a.2.2 0 0 0 0-.05h.011a.271.271 0 0 0 .304-.213v-.018a.273.273 0 0 1-.249.213.76.76 0 0 0 .335-.627v-.032a.284.284 0 0 0 .082-.078.254.254 0 0 0 .043-.105v-.019a.277.277 0 0 1-.047.099.26.26 0 0 1-.083.071.74.74 0 0 0-.046-.213h.019a.274.274 0 0 0 .275-.275v-.019a.275.275 0 0 1-.273.256h-.034v-.013a.444.444 0 0 0 .315-.364v-.02a.28.28 0 0 1-.055.148.28.28 0 0 0-.062-.189.272.272 0 0 0-.365-.054.272.272 0 0 0-.114.162l-.049-.028a.273.273 0 0 1 .247-.2h-.019a.274.274 0 0 0-.263.185.753.753 0 0 0-.95.273c-.057.043-.132.104-.13.158a.547.547 0 0 0-.066.08c-.081.178-.11.375-.085.57a.602.602 0 0 1-.196.521.262.262 0 0 0 .2 0 .76.76 0 0 0 .177-.104.398.398 0 0 0 .126-.121v-.011a.591.591 0 0 0 .113.06c.015.127.019.274-.039.323l.011-.023a.691.691 0 0 1-.479.136.598.598 0 0 0-.497.32l-.232.97v.033a.087.087 0 0 0 .02.035c.01.01.022.016.035.019l.073.019c.011.165-.006.332-.049.492-.049.239-.077.48-.083.724.017.122.047.755.062 1.055a2.996 2.996 0 0 0-.062.311l-.343 2.058s-.256 1.647-.243 2.146l-.045.287s-.697.874-.492.997c.204.124.52.177.82-.287a.76.76 0 0 1 .192-.288.284.284 0 0 0 .096-.24l-.021-.214.036.013h.021s.343-1.127.305-1.917c0 0 .639-2.263 1.118-2.619v-.015l.045-.021.102 2.192-.104 2.416-.024.145s-.696.874-.492.997c.205.124.52.177.821-.287a.747.747 0 0 1 .191-.288.283.283 0 0 0 .096-.24l-.032-.32c.12-.407.426-1.58.301-2.259l.213-1.444c.213-.241.185-.852.185-.852.168-.352.213-1.73.213-1.73l.043-.682a.57.57 0 0 1 .096 0h.034v-.013a.073.073 0 0 0 .015-.02h.012v-.016l-.002-.002Zm-.596 1.385a2.161 2.161 0 0 0-.064-.141h-.017v-.017a.049.049 0 0 1 0-.017v-.017a.575.575 0 0 0 .025-.07.264.264 0 0 0 .041-.148c.025.135.03.273.015.41Zm-.064-.584-.043-.456.013-.036.057.58-.027-.088Zm-2.02.061a.147.147 0 0 0-.032.058.147.147 0 0 0-.006.066v.015c0 .046.006.092.019.136l-.066.286v-.546c.044-.057.082-.118.115-.183a.297.297 0 0 1-.03.168Z"/><path fill="#72351C" d="M186.61 83.97a1.01 1.01 0 0 0-.083.548.584.584 0 0 1-.189.503.247.247 0 0 0 .194 0 .742.742 0 0 0 .17-.1c.049-.03.09-.07.121-.117a.45.45 0 0 0 .028-.232c0-.14.013-.279.036-.416.013-.085.094-.317 0-.362-.093-.045-.236.113-.277.177Z"/><path fill="#333" d="m185.202 93.028-.066.426s-.671.852-.473.96c.198.11.501.171.79-.276a.725.725 0 0 1 .184-.277.28.28 0 0 0 .074-.105.263.263 0 0 0 .017-.127l-.066-.65-.46.049ZM187.222 93.196l-.066.426s-.671.853-.473.961c.198.109.5.17.79-.277a.735.735 0 0 1 .183-.277.271.271 0 0 0 .092-.232l-.066-.65-.46.05Z"/><path fill="#4D8AF0" d="M186.176 88.102s-.316.228-.426 1.02l-.331 1.984s-.279 1.798-.228 2.143l.559.192s.33-1.086.294-1.843c0 0 .671-2.39 1.142-2.556l.1 2.11-.107 2.376.478.096s.483-1.512.33-2.313l.249-1.705s.286-.91-.111-1.704l-1.949.2Z"/><g fill="#000" opacity=".1"><path d="M187.137 89.073v-.036c-.471.169-1.142 2.557-1.142 2.557a6.752 6.752 0 0 1-.288 1.824l.06.021s.33-1.087.294-1.843c-.002.002.611-2.17 1.076-2.523ZM188.144 87.912h-.064c.23.534.267 1.131.107 1.69l-.249 1.704c.147.759-.282 2.154-.326 2.301l.062.013s.483-1.513.33-2.314l.249-1.704s.288-.906-.109-1.69Z" opacity=".1"/></g><path fill="#F55F44" d="M185.748 86.549a.063.063 0 0 0 .015.045.07.07 0 0 0 .04.025c.156.04.301.112.426.213.234.183-.249-.366-.249-.366l-.162.036-.066.06-.004-.013Z"/><path fill="#000" d="M185.748 86.549a.063.063 0 0 0 .015.045.07.07 0 0 0 .04.025c.156.04.301.112.426.213.234.183-.249-.366-.249-.366l-.162.036-.066.06-.004-.013Z" opacity=".1"/><path fill="#F55F44" d="M188.053 87.035c.197-.14.425-.23.664-.263a.06.06 0 0 0 .044-.018.06.06 0 0 0 .018-.043s-.558-.22-.726.324Z"/><path fill="#000" d="M188.779 86.709s-.558-.213-.726.323c0 0 .411-.315.696-.264" opacity=".1"/><path fill="#72351C" d="M187.405 84.868a.727.727 0 1 0 0-1.454.727.727 0 0 0 0 1.454Z"/><path fill="#FDB797" d="M186.904 84.65s.103.427 0 .514c-.102.087-.309.25-.153.375.156.126.712.339.897.234.185-.104.396-.072.345-.285-.051-.213-.456-.168-.462-1.227l-.627.39Z"/><path fill="#000" d="M185.875 86.421a2.62 2.62 0 0 1-.044.69 3.98 3.98 0 0 0-.081.697c.021.153.066 1.167.066 1.167s-.081.889.351.808c.433-.081-.066-1.014-.066-1.014l.021-1.213c.118-.159.191-.346.214-.543.032-.292-.461-.592-.461-.592Z" opacity=".1"/><path fill="#FDB797" d="M185.869 86.421c.015.231 0 .463-.045.69-.047.23-.074.463-.081.697.022.153.066 1.167.066 1.167s-.081.889.352.808c.432-.081-.066-1.014-.066-1.014l.021-1.213c.117-.159.191-.346.213-.543.03-.292-.46-.592-.46-.592Z"/><path fill="#000" d="m188.636 86.487-.059.948s-.036 1.33-.198 1.666c0 0 .044.933-.39.91-.435-.023.072-1.02.072-1.02s.232-1.038.113-1.366l-.113-1.138h.575Z" opacity=".1"/><path fill="#FDB797" d="m188.643 86.487-.06.948s-.036 1.33-.198 1.666c0 0 .045.933-.39.91-.434-.023.073-1.02.073-1.02s.232-1.038.113-1.366l-.113-1.138h.575Z"/><path fill="#000" d="M187.235 85.569s.351.162.543-.32l.714.35a.444.444 0 0 1 .138.323l.154.823s-.522-.177-.684.309l.044.462a.495.495 0 0 1-.023.345.083.083 0 0 0-.007.031c0 .01.003.021.007.031a.23.23 0 0 1 .008.104.226.226 0 0 1-.221.19 4.327 4.327 0 0 0-.573.045c-.154.044-.618-.088-.771 0-.154.087-.478-.066-.478-.066l.088-.375s-.06-.183.015-.25c.074-.066.029-.639-.037-.8 0 0-.264-.25-.426-.214l.213-.948a.573.573 0 0 1 .477-.309.67.67 0 0 0 .463-.132s-.16.35.356.4Z" opacity=".1"/><path fill="#000" d="M187.271 85.552c.096.025.351.053.505-.333l.714.35a.46.46 0 0 1 .138.324l.153.822s-.522-.177-.683.309l.044.462.03.092a.263.263 0 0 1-.036.234.088.088 0 0 0-.02.04.085.085 0 0 0 .005.045.23.23 0 0 1 .008.105.225.225 0 0 1-.221.19 4.326 4.326 0 0 0-.573.044c-.154.045-.618-.087-.771 0-.154.088-.478-.066-.478-.066l.088-.375s-.06-.183.015-.25c.074-.065.029-.638-.037-.8 0 0-.264-.25-.426-.213l.213-.948a.573.573 0 0 1 .477-.31.67.67 0 0 0 .463-.131s-.173.315.281.383l.111.026Z" opacity=".1"/><path fill="#F55F44" d="M187.271 85.567c.096.025.351.053.505-.333l.714.35a.46.46 0 0 1 .138.323l.153.823s-.522-.177-.684.309l.045.462a.495.495 0 0 1-.023.345.082.082 0 0 0-.007.031c0 .01.003.021.007.031a.23.23 0 0 1-.112.269.223.223 0 0 1-.101.025 4.313 4.313 0 0 0-.573.045c-.154.045-.618-.088-.772 0-.153.087-.477-.066-.477-.066l.087-.375s-.059-.183.015-.25c.075-.066.03-.639-.036-.8 0 0-.264-.25-.426-.214l.213-.948a.573.573 0 0 1 .477-.309.67.67 0 0 0 .463-.132s-.173.316.281.384l.113.03Z"/><path fill="#000" d="m187.541 84.299-.624.39c.016.07.028.141.036.213a.604.604 0 0 0 .224.043.64.64 0 0 0 .405-.184 2.473 2.473 0 0 1-.041-.462Z" opacity=".1"/><path fill="#FDB797" d="M187.164 84.898a.603.603 0 1 0 0-1.206.603.603 0 0 0 0 1.206Z"/><path fill="#72351C" d="M188.053 83.832a.264.264 0 1 0 0-.527.264.264 0 0 0 0 .527Z"/><path fill="#72351C" d="M188.104 83.847a.264.264 0 0 1-.264-.245v.02a.265.265 0 0 0 .451.187.266.266 0 0 0 .077-.188v-.019a.265.265 0 0 1-.264.245Z"/><path fill="#72351C" d="M187.953 84.099a.265.265 0 0 1-.213-.29v.017a.262.262 0 0 0 .212.308.263.263 0 0 0 .307-.212v-.02a.263.263 0 0 1-.306.197ZM187.748 84.738a.263.263 0 0 1-.213-.29v.017a.265.265 0 0 0 .52.096v-.02a.263.263 0 0 1-.307.197ZM188.104 83.707a.264.264 0 0 1-.264-.247v.019a.266.266 0 0 0 .451.187.266.266 0 0 0 .077-.187v-.02a.263.263 0 0 1-.264.248Z"/><path fill="#72351C" d="M187.735 83.564a.265.265 0 0 1 .25-.262h-.02a.263.263 0 1 0 0 .528h.02a.265.265 0 0 1-.25-.266Z"/><path fill="#000" d="M188.002 86.057a.98.98 0 0 1 0 .396s-.037.345.021.405M186.216 86.138a.945.945 0 0 1 0 .396s-.036.345.022.405M186.201 87.554c.057.02.12.02.177 0a.366.366 0 0 1 .213 0M186.291 87.035c.207.01.415-.023.609-.096 0 0 .75.183.963.05" opacity=".1"/><path fill="#FDB797" d="M186.065 90.2h-.177a.143.143 0 1 0 0 .286h.177a.143.143 0 1 0 0-.285Z"/><path fill="#F0E4E4" d="m185.747 90.277.248-.01.213.034h-.075l-.386-.024ZM187.414 89.082h.247l.213.021h-.075l-.385-.021ZM187.414 89.133h.247l.213.022h-.075l-.385-.022ZM187.414 89.186h.247l.213.022h-.075l-.385-.022ZM187.414 89.237h.247l.213.022h-.075l-.385-.022ZM185.747 90.475h.248l.213.026h-.075l-.386-.026ZM185.747 90.45h.248l.213.025h-.075l-.386-.025ZM185.747 90.424h.248l.213.026h-.075l-.386-.026ZM185.747 90.399h.248l.213.025h-.075l-.386-.025ZM185.747 90.239l.248-.01.213.033h-.075l-.386-.023ZM185.747 90.194l.248-.01.213.034h-.075l-.386-.024Z"/><path fill="#000" d="M187.267 83.909c-.024.225.005.453.085.665a.79.79 0 0 1-.032.639.21.21 0 0 0 .187-.047.743.743 0 0 0 .137-.16.432.432 0 0 0 .083-.166.658.658 0 0 0-.043-.281 3.632 3.632 0 0 1-.089-.497c-.013-.102 0-.396-.115-.426-.115-.03-.192.188-.213.273Z" opacity=".1"/><path fill="#72351C" d="M187.282 83.903c-.024.225.005.452.085.664a.79.79 0 0 1-.032.64.212.212 0 0 0 .187-.047.743.743 0 0 0 .137-.16.432.432 0 0 0 .083-.166.658.658 0 0 0-.043-.282 3.632 3.632 0 0 1-.089-.496c-.013-.102 0-.396-.115-.426-.115-.03-.192.185-.213.273Z"/><path fill="#000" d="M187.022 84.06c.051.054.061.132.104.192a.376.376 0 0 0 .298.12.17.17 0 0 1 .088.019c.046.03.049.097.078.144a.174.174 0 0 0 .193.04.178.178 0 0 0 .057-.04.417.417 0 0 0 .096-.262c.01-.105.01-.212 0-.317a.484.484 0 0 0-.135-.324.563.563 0 0 0-.236-.102.7.7 0 0 0-.364-.028.662.662 0 0 0-.167.083 9.626 9.626 0 0 0-.213.143c-.079.055-.228.166-.083.226.092.042.207.023.284.106Z" opacity=".1"/><path fill="#72351C" d="M187.036 84.052c.052.053.062.132.105.191a.375.375 0 0 0 .298.12.172.172 0 0 1 .088.019c.046.03.049.098.078.145a.176.176 0 0 0 .125.054.173.173 0 0 0 .125-.054.41.41 0 0 0 .095-.262 1.53 1.53 0 0 0 0-.318.48.48 0 0 0-.134-.323.57.57 0 0 0-.236-.103.703.703 0 0 0-.365-.027.652.652 0 0 0-.166.083 9.287 9.287 0 0 0-.213.142c-.079.056-.228.167-.083.226.092.043.213.026.283.107Z"/><path fill="#F0E4E4" d="M187.428 89.082h.248l.213.021h-.071l-.39-.021ZM187.428 89.133h.248l.213.022h-.071l-.39-.022ZM187.428 89.186h.248l.213.022h-.071l-.39-.022ZM187.428 89.237h.248l.213.022h-.071l-.39-.022ZM187.322 92.065h.247l.213.021h-.074l-.386-.021ZM187.322 92.118h.247l.213.021h-.074l-.386-.02ZM187.322 92.17h.247l.213.02h-.074l-.386-.02ZM187.322 92.22h.247l.213.022h-.074l-.386-.022Z"/></g><path fill="#000" d="M105.148 176.723h3.057L103.352 191h-3.301l-4.844-14.277h3.057l2.685 8.496c.15.501.303 1.087.459 1.758.163.664.264 1.126.303 1.386.072-.599.316-1.647.732-3.144l2.705-8.496Zm9.151 5.273c-.632 0-1.126.202-1.485.606-.358.397-.563.963-.615 1.699h4.18c-.013-.736-.205-1.302-.576-1.699-.371-.404-.873-.606-1.504-.606Zm.42 9.199c-1.758 0-3.132-.485-4.121-1.455-.99-.97-1.485-2.344-1.485-4.121 0-1.829.456-3.242 1.367-4.238.918-1.003 2.185-1.504 3.799-1.504 1.543 0 2.744.439 3.604 1.318.859.879 1.289 2.093 1.289 3.643v1.445h-7.041c.032.847.283 1.507.752 1.983.469.475 1.126.713 1.972.713.658 0 1.28-.069 1.866-.206a9.25 9.25 0 0 0 1.836-.654v2.305a6.884 6.884 0 0 1-1.67.576c-.593.13-1.315.195-2.168.195Zm12.949-11.318c1.289 0 2.298.505 3.027 1.514.729 1.002 1.094 2.379 1.094 4.13 0 1.804-.378 3.2-1.133 4.19-.748.99-1.771 1.484-3.066 1.484-1.283 0-2.289-.465-3.018-1.396h-.205l-.498 1.201h-2.275v-15.195h2.978v3.535c0 .449-.039 1.168-.117 2.158h.117c.697-1.081 1.729-1.621 3.096-1.621Zm-.957 2.383c-.736 0-1.273.228-1.611.683-.339.45-.515 1.195-.528 2.237v.322c0 1.172.173 2.012.518 2.519.351.508.905.762 1.66.762.612 0 1.097-.28 1.455-.84.365-.566.547-1.386.547-2.461 0-1.074-.182-1.878-.547-2.412-.365-.54-.863-.81-1.494-.81Zm15.156 5.498c0 1.12-.39 1.972-1.172 2.558-.774.586-1.937.879-3.486.879-.794 0-1.471-.055-2.031-.166a7.506 7.506 0 0 1-1.573-.468V188.1c.554.26 1.176.478 1.866.654.696.176 1.308.264 1.836.264 1.08 0 1.621-.313 1.621-.938a.766.766 0 0 0-.215-.566c-.143-.15-.391-.316-.742-.498a17.512 17.512 0 0 0-1.407-.655c-.839-.351-1.458-.677-1.855-.976-.391-.3-.677-.642-.859-1.026-.176-.39-.264-.869-.264-1.435 0-.97.374-1.719 1.123-2.246.755-.534 1.823-.801 3.203-.801 1.315 0 2.595.286 3.838.859l-.898 2.149a16.09 16.09 0 0 0-1.534-.576 4.804 4.804 0 0 0-1.455-.225c-.879 0-1.318.238-1.318.713 0 .267.14.498.42.693.286.196.908.485 1.865.869.853.345 1.478.668 1.875.967.397.3.69.645.879 1.035.189.391.283.856.283 1.397Zm9.258 3.242-.576-1.484h-.078c-.502.631-1.019 1.071-1.553 1.318-.527.241-1.217.361-2.07.361-1.049 0-1.875-.299-2.481-.898-.599-.599-.898-1.452-.898-2.559 0-1.159.403-2.011 1.211-2.558.813-.554 2.037-.86 3.672-.918l1.894-.059v-.478c0-1.107-.566-1.661-1.699-1.661-.873 0-1.898.264-3.076.791l-.987-2.011c1.257-.658 2.65-.987 4.18-.987 1.465 0 2.588.319 3.369.957.781.638 1.172 1.609 1.172 2.911V191h-2.08Zm-.879-5.059-1.152.039c-.866.027-1.511.183-1.934.469-.423.287-.635.723-.635 1.309 0 .84.482 1.26 1.446 1.26.69 0 1.24-.199 1.65-.596.417-.397.625-.925.625-1.582v-.899Zm4.473-5.859h3.261l2.061 6.143c.176.533.296 1.165.361 1.894h.059c.072-.67.212-1.302.42-1.894l2.021-6.143h3.194l-4.619 12.314c-.424 1.14-1.029 1.993-1.817 2.559-.781.566-1.696.85-2.744.85a6.961 6.961 0 0 1-1.514-.166v-2.364c.358.085.749.127 1.172.127a2.08 2.08 0 0 0 1.377-.488c.397-.319.707-.804.928-1.455l.176-.537-4.336-10.84Zm17.549 8.74c.52 0 1.145-.114 1.875-.342v2.217c-.743.332-1.654.498-2.735.498-1.191 0-2.06-.299-2.607-.898-.541-.606-.811-1.511-.811-2.715v-5.264h-1.426v-1.259l1.641-.997.859-2.304h1.905v2.324h3.056v2.236h-3.056v5.264c0 .423.117.736.351.938.241.201.557.302.948.302Zm13.886 0c.521 0 1.146-.114 1.875-.342v2.217c-.742.332-1.653.498-2.734.498-1.191 0-2.061-.299-2.607-.898-.541-.606-.811-1.511-.811-2.715v-5.264h-1.426v-1.259l1.641-.997.859-2.304h1.904v2.324h3.057v2.236h-3.057v5.264c0 .423.118.736.352.938.241.201.557.302.947.302ZM197.98 191l-.4-1.396h-.156c-.319.507-.772.901-1.358 1.181-.586.274-1.253.41-2.002.41-1.282 0-2.249-.341-2.9-1.025-.651-.69-.976-1.68-.976-2.969v-7.119h2.978v6.377c0 .788.14 1.38.42 1.777.28.391.726.586 1.338.586.833 0 1.435-.276 1.806-.83.372-.56.557-1.484.557-2.773v-5.137h2.979V191h-2.286Zm13.008 0h-8.623v-1.758l5.059-6.885h-4.756v-2.275h8.144v1.934l-4.921 6.709h5.097V191Zm2.041-13.74c0-.97.541-1.455 1.621-1.455 1.081 0 1.621.485 1.621 1.455 0 .462-.136.823-.41 1.084-.267.254-.67.381-1.211.381-1.08 0-1.621-.489-1.621-1.465Zm3.106 13.74h-2.979v-10.918h2.979V191Zm10.752-3.242c0 1.12-.391 1.972-1.172 2.558-.775.586-1.937.879-3.486.879-.795 0-1.472-.055-2.032-.166a7.48 7.48 0 0 1-1.572-.468V188.1c.553.26 1.175.478 1.865.654.697.176 1.309.264 1.836.264 1.081 0 1.621-.313 1.621-.938 0-.234-.071-.423-.215-.566-.143-.15-.39-.316-.742-.498-.351-.189-.82-.407-1.406-.655-.84-.351-1.458-.677-1.855-.976-.391-.3-.678-.642-.86-1.026-.176-.39-.264-.869-.264-1.435 0-.97.375-1.719 1.124-2.246.755-.534 1.822-.801 3.203-.801 1.315 0 2.594.286 3.838.859l-.899 2.149a16.179 16.179 0 0 0-1.533-.576 4.804 4.804 0 0 0-1.455-.225c-.879 0-1.319.238-1.319.713 0 .267.14.498.42.693.287.196.909.485 1.866.869.852.345 1.477.668 1.875.967.397.3.69.645.879 1.035.188.391.283.856.283 1.397ZM239.289 191h-2.978v-6.377c0-1.575-.586-2.363-1.758-2.363-.834 0-1.436.283-1.807.849-.371.567-.557 1.485-.557 2.754V191h-2.978v-15.195h2.978v3.095c0 .241-.022.808-.068 1.7l-.068.879h.156c.664-1.068 1.719-1.602 3.164-1.602 1.283 0 2.256.345 2.92 1.035.664.69.996 1.68.996 2.969V191ZM123.422 230h-1.297v-12.156h1.297V230Zm10.14-4.289c0 1.396-.351 2.487-1.054 3.273-.703.782-1.675 1.172-2.914 1.172-.766 0-1.446-.179-2.039-.539-.594-.359-1.052-.875-1.375-1.547-.323-.672-.485-1.458-.485-2.359 0-1.396.349-2.482 1.047-3.258.698-.781 1.667-1.172 2.906-1.172 1.198 0 2.149.399 2.852 1.196.708.796 1.062 1.875 1.062 3.234Zm-6.523 0c0 1.094.219 1.927.656 2.5.438.573 1.081.859 1.93.859s1.492-.284 1.93-.851c.442-.573.664-1.409.664-2.508 0-1.089-.222-1.914-.664-2.477-.438-.567-1.086-.851-1.946-.851-.849 0-1.489.278-1.921.836-.433.557-.649 1.388-.649 2.492Zm12.711-4.43c.38 0 .721.031 1.023.094l-.179 1.203a4.426 4.426 0 0 0-.938-.117c-.692 0-1.286.281-1.781.844-.49.562-.734 1.263-.734 2.101V230h-1.297v-8.562h1.07l.148 1.585h.063c.318-.557.701-.987 1.148-1.289a2.588 2.588 0 0 1 1.477-.453Zm6.242 8.875c-1.265 0-2.265-.385-3-1.156-.729-.771-1.094-1.841-1.094-3.211 0-1.38.339-2.477 1.016-3.289.682-.812 1.596-1.219 2.742-1.219 1.073 0 1.922.354 2.547 1.063.625.703.938 1.633.938 2.789v.82h-5.899c.026 1.005.279 1.768.758 2.289.484.521 1.164.781 2.039.781.922 0 1.833-.192 2.734-.578v1.157a6.66 6.66 0 0 1-1.304.421c-.407.089-.899.133-1.477.133Zm-.351-7.789c-.688 0-1.237.224-1.649.672-.406.448-.646 1.068-.719 1.859h4.477c0-.817-.182-1.442-.547-1.875-.364-.437-.885-.656-1.562-.656ZM162.273 230v-5.57c0-.683-.145-1.193-.437-1.532-.292-.343-.745-.515-1.359-.515-.808 0-1.404.232-1.789.695-.386.464-.579 1.177-.579 2.141V230h-1.297v-5.57c0-.683-.145-1.193-.437-1.532-.292-.343-.747-.515-1.367-.515-.813 0-1.409.245-1.789.734-.375.485-.563 1.281-.563 2.391V230h-1.297v-8.562h1.055l.211 1.171h.063a2.548 2.548 0 0 1 1.031-.976 3.179 3.179 0 0 1 1.5-.352c1.338 0 2.213.485 2.625 1.453h.062a2.723 2.723 0 0 1 1.11-1.062c.484-.261 1.036-.391 1.656-.391.969 0 1.693.25 2.172.75.484.495.726 1.289.726 2.383V230h-1.297Zm9.43 0h-1.297v-8.562h1.297V230Zm-1.406-10.883c0-.297.073-.513.219-.648a.753.753 0 0 1 .546-.211c.209 0 .389.07.54.211.151.14.226.357.226.648 0 .292-.075.511-.226.656a.764.764 0 0 1-.54.211.753.753 0 0 1-.546-.211c-.146-.145-.219-.364-.219-.656Zm8.141 11.039a3.779 3.779 0 0 1-1.532-.304 2.908 2.908 0 0 1-1.156-.954h-.094c.063.5.094.974.094 1.422v3.524h-1.297v-12.406h1.055l.18 1.171h.062c.333-.468.721-.807 1.164-1.015.443-.209.951-.313 1.524-.313 1.135 0 2.01.388 2.624 1.164.62.776.93 1.865.93 3.266 0 1.406-.315 2.5-.945 3.281-.625.776-1.495 1.164-2.609 1.164Zm-.188-7.773c-.875 0-1.508.242-1.898.726-.391.485-.592 1.256-.602 2.313v.289c0 1.203.201 2.065.602 2.586.401.515 1.044.773 1.929.773.74 0 1.318-.299 1.735-.898.422-.599.632-1.425.632-2.477 0-1.067-.21-1.885-.632-2.453-.417-.573-1.006-.859-1.766-.859Zm11.539 5.281c0 .797-.297 1.412-.891 1.844-.593.432-1.427.648-2.5.648-1.135 0-2.02-.179-2.656-.539v-1.203c.412.208.852.372 1.32.492.474.12.93.18 1.368.18.677 0 1.198-.107 1.562-.32.365-.219.547-.55.547-.993 0-.333-.146-.617-.437-.851-.287-.24-.849-.521-1.688-.844-.797-.297-1.365-.555-1.703-.773a2.42 2.42 0 0 1-.75-.758c-.162-.281-.242-.617-.242-1.008 0-.698.284-1.247.851-1.648.568-.407 1.347-.61 2.336-.61.922 0 1.823.188 2.703.563l-.461 1.054c-.859-.354-1.638-.531-2.336-.531-.614 0-1.078.097-1.39.289-.313.193-.469.459-.469.797 0 .229.057.425.172.586.12.162.31.315.57.461.261.146.761.357 1.5.633 1.016.37 1.701.742 2.055 1.117.359.375.539.846.539 1.414Zm3.336-6.226v5.554c0 .698.159 1.219.477 1.563.317.343.815.515 1.492.515.896 0 1.549-.244 1.961-.734.416-.49.625-1.289.625-2.398v-4.5h1.297V230h-1.071l-.187-1.148h-.071a2.58 2.58 0 0 1-1.109.968c-.469.224-1.005.336-1.609.336-1.042 0-1.823-.247-2.344-.742-.516-.495-.774-1.286-.774-2.375v-5.601h1.313ZM212.648 230v-5.57c0-.683-.145-1.193-.437-1.532-.292-.343-.745-.515-1.359-.515-.808 0-1.404.232-1.79.695-.385.464-.578 1.177-.578 2.141V230h-1.296v-5.57c0-.683-.146-1.193-.438-1.532-.292-.343-.747-.515-1.367-.515-.813 0-1.409.245-1.789.734-.375.485-.563 1.281-.563 2.391V230h-1.297v-8.562h1.055l.211 1.171h.062a2.557 2.557 0 0 1 1.032-.976 3.179 3.179 0 0 1 1.5-.352c1.338 0 2.213.485 2.625 1.453h.062a2.723 2.723 0 0 1 1.11-1.062c.484-.261 1.036-.391 1.656-.391.969 0 1.693.25 2.172.75.484.495.726 1.289.726 2.383V230h-1.297Z"/></g><defs><linearGradient id="c" x1="162.23" x2="162.23" y1="153.998" y2="105.051" gradientUnits="userSpaceOnUse"><stop stop-color="gray" stop-opacity=".25"/><stop offset=".54" stop-color="gray" stop-opacity=".12"/><stop offset="1" stop-color="gray" stop-opacity=".1"/></linearGradient><linearGradient id="d" x1="67975.7" x2="67975.7" y1="52270.1" y2="24" gradientUnits="userSpaceOnUse"><stop stop-color="gray" stop-opacity=".25"/><stop offset=".54" stop-color="gray" stop-opacity=".12"/><stop offset="1" stop-color="gray" stop-opacity=".1"/></linearGradient><linearGradient id="e" x1="41700.5" x2="41700.5" y1="61071.3" y2="26317.6" gradientUnits="userSpaceOnUse"><stop stop-color="gray" stop-opacity=".25"/><stop offset=".54" stop-color="gray" stop-opacity=".12"/><stop offset="1" stop-color="gray" stop-opacity=".1"/></linearGradient><linearGradient id="f" x1="3155.72" x2="3155.72" y1="5700.23" y2="5049.35" gradientUnits="userSpaceOnUse"><stop stop-color="gray" stop-opacity=".25"/><stop offset=".54" stop-color="gray" stop-opacity=".12"/><stop offset="1" stop-color="gray" stop-opacity=".1"/></linearGradient><clipPath id="b"><path fill="#fff" d="M66.603 24h202.795v130H66.603z"/></clipPath><filter id="a" width="336" height="276" x="0" y="0" color-interpolation-filters="sRGB" filterUnits="userSpaceOnUse"><feFlood flood-opacity="0" result="BackgroundImageFix"/><feColorMatrix in="SourceAlpha" result="hardAlpha" values="0 0 0 0 0 0 0 0 0 0 0 0 0 0 0 0 0 0 127 0"/><feOffset dy="8"/><feGaussianBlur stdDeviation="4"/><feColorMatrix values="0 0 0 0 0 0 0 0 0 0 0 0 0 0 0 0 0 0 0.1 0"/><feBlend in2="BackgroundImageFix" result="effect1_dropShadow_13_165"/><feBlend in="SourceGraphic" in2="effect1_dropShadow_13_165" result="shape"/></filter></defs></svg>